<?xml version="1.0" encoding="UTF-8"?>
<!DOCTYPE svg  PUBLIC '-//W3C//DTD SVG 1.1//EN'  'http://www.w3.org/Graphics/SVG/1.1/DTD/svg11.dtd'>
<svg enable-background="new 0 0 191.85 92.4" version="1.1" viewBox="0 0 191.85 92.4" xml:space="preserve" xmlns="http://www.w3.org/2000/svg" xmlns:xlink="http://www.w3.org/1999/xlink">
<symbol id="q" viewBox="0 -90.75 191.85 90.734">
					<use transform="translate(0 -50.05)" y="-40.7" width="191.85" height="40.629" enable-background="new" opacity=".75" xlink:href="#r"/>
					<use transform="translate(10.45 -50.3)" x="-0.088" y="-36.014" width="168.238" height="35.964" enable-background="new" opacity=".1406" xlink:href="#s"/>
					<radialGradient id="l" cx="83.6" cy="-35.6" r="72.5" gradientTransform="matrix(1 0 0 -.7159 0 -61.084)" gradientUnits="userSpaceOnUse">
					<stop stop-color="#E5F1F7" offset="0"/>
					<stop stop-color="#96BDD6" offset="1"/>
				</radialGradient>
				<path d="m157.95-48.85c1.667-7.667 2.833-13.333 3.5-17-2.5-1.434-5.417-2.833-8.75-4.2-6.667-2.733-12.083-4-16.25-3.8-3.7 0.2-9.217 0.1-16.55-0.3-8.533-0.467-14.183-0.7-16.95-0.7-4.1 0-10.3-0.917-18.6-2.75-9.4-2.067-14.65-3.15-15.75-3.25-2.2-0.233-3.8-0.233-4.8 0-1.566 0.5-3.183 1-4.85 1.5-4.1 1.233-7.667 2.5-10.7 3.8-2.867 1.267-4.633 2-5.3 2.2-0.7 0.2-1.284 0.55-1.75 1.05-0.467 0.6-0.867 1.033-1.2 1.3-1.167 1.1-3.517 1.65-7.05 1.65-3.733 0-6.3 0.283-7.7 0.85-1.033 0.767-1.967 1.317-2.8 1.65-1.034 0.4-2.184 1.433-3.45 3.1l-1.55 2.4c0.5 1.066 1.05 2.55 1.65 4.45 1.167 3.733 1.95 7.583 2.35 11.55 0.566 5.367 1.133 9.55 1.7 12.55 0.7 3.867 1.633 7.183 2.8 9.95 1.667 4 3.167 8.5 4.5 13.5l9.55 2.95c7.767 1.9 15.083 2.75 21.95 2.55 5.5-0.167 12.133-0.067 19.9 0.3 5.9 0.067 10.767-0.7 14.6-2.3 3.767-1.6 7.933-2.817 12.5-3.65 9.4-1.7 14.566-2.65 15.5-2.85 2.733-0.6 8.216-1.583 16.45-2.95 4.533-0.733 7.383-1.583 8.55-2.55 2-1.667 3.833-3.333 5.5-5l0.55-8.7c0.6-6.733 1.42-12.5 2.45-17.3z" clip-rule="evenodd" fill="url(#l)" fill-rule="evenodd"/>
			<g clip-rule="evenodd" fill-rule="evenodd">
				<path d="m41.25-33.35c-0.733-1.6-1.333-2.733-1.8-3.4-0.833-1.267-1.833-2.183-3-2.75-1.534-0.966-2.617-1.6-3.25-1.9-1.067-0.5-2.15-0.533-3.25-0.1-1.133 0.4-2.133 0.684-3 0.85l-1 0.15c-0.233 1.434-0.35 2.434-0.35 3l-0.15 2.15c0.767 0.767 1.6 2.216 2.5 4.35 0.533 1.3 1.083 2.3 1.65 3 0.267 0.333 0.483 0.55 0.65 0.65l0.45-0.25c0.633-0.2 1.716-0.333 3.25-0.4 2.433-0.1 4.816-0.15 7.15-0.15l2-0.85-1.85-4.35z" fill="#BEDAEA"/>
				<path d="m62.45-24.3c1.066 0.867 1.983 1.4 2.75 1.6 1.2 0.333 2.55 0.517 4.05 0.55l0.5-1.65c0.333-1.2 0.5-2.15 0.5-2.85 0-0.533 0.383-2.2 1.15-5 0.7-2.633 0.983-4.133 0.85-4.5-0.1-0.367 0.1-3.066 0.6-8.1 0.5-5.167 0.733-7.983 0.7-8.45-0.1-1-1.267 0.917-3.5 5.75-0.867 0.5-2.7 2.033-5.5 4.6-1.8 1.667-2.883 2.733-3.25 3.2-0.6 0.867-0.95 2.033-1.05 3.5-0.067 1.3 0.05 3.383 0.35 6.25l0.5 3.9 1.35 1.2z" fill="#E3F3FF"/>
				<path d="m94.75-29.7l1.65-3c1.167-2.267 1.95-4.083 2.35-5.45 0.4-1.333 0.217-2.833-0.55-4.5-1.6-3.367-2.417-5.1-2.45-5.2-1-2.867-1.767-5.534-2.3-8-2.467 3.466-4.034 6.033-4.7 7.7-0.467 1.167-0.75 2.05-0.85 2.65-0.033 0.2-0.25 1.917-0.65 5.15-0.267 2.433-0.867 4.55-1.8 6.35l-1.35 2 2 1.4c1.467 0.966 2.583 1.45 3.35 1.45 1.2 0 2.967-0.183 5.3-0.55z" fill="#E3F3FF"/>
			</g>
			<g clip-rule="evenodd" fill="#9FC0D4" fill-rule="evenodd">
				<path d="m68.65-22.45c0.2 0.3 0.4 0.4 0.6 0.3l2.85-2.85c0.2-0.167 0.417-0.716 0.65-1.65 0.267-1.2 0.6-2.2 1-3 0.5-1 0.983-1.8 1.45-2.4 0.267-0.367 0.683-0.9 1.25-1.6 0.333-0.467 1.1-1.133 2.3-2 1-0.733 1.5-1.183 1.5-1.35 0-0.333-0.217-0.9-0.65-1.7-0.533-0.967-1.25-1.9-2.15-2.8-0.8-0.8-1.317-2-1.55-3.6-0.1-0.967-0.316-2.817-0.65-5.55-0.333-1.967-0.783-2.8-1.35-2.5l-0.8 1c-0.1 2.2-0.434 4.417-1 6.65-0.267 1.1-0.567 2.434-0.9 4-0.4 1.934-0.817 3.817-1.25 5.65-0.667 2.566-1.067 4.2-1.2 4.9-0.167 0.8-0.333 2.333-0.5 4.6-0.133 2.034 0 3.333 0.4 3.9z"/>
				<path d="m94.1-35.65c0.533 5.1 0.75 7.083 0.65 5.95 0.967 1.133 3.567 1.733 7.8 1.8 2.133 0.033 4.15-0.05 6.05-0.25l-2.5-3.5c-0.233-0.3 0.017-0.667 0.75-1.1 0.167-0.133 1.2-0.667 3.1-1.6 1.767-0.867 3.367-1.483 4.8-1.85-0.533-0.767-0.967-1.317-1.3-1.65-0.534 0.033-1 0.05-1.4 0.05-0.733 0.033-1.267-0.483-1.6-1.55-0.3-0.934-1.083-1.684-2.35-2.25-1.533-0.7-2.65-1.5-3.35-2.4-0.867-1.167-1.8-2.25-2.8-3.25-1.233-1.233-2.3-2.316-3.2-3.25-1.1-1.2-2.317-2.45-3.65-3.75l-1.65-1.6c-0.667 2.9-1 4.85-1 5.85 0 0.534 0.167 2.15 0.5 4.85 0.533 4.167 0.917 7.334 1.15 9.5z"/>
				<path d="m41.45-30.35c0.066 0.066 0.466 0.5 1.2 1.3 0.367 0.433 0.517 0.45 0.45 0.05 0-0.066-0.167-2.233-0.5-6.5-0.067-0.8-0.267-1.35-0.6-1.65-0.6-0.633-0.95-1.033-1.05-1.2-0.667-1-2.167-2.383-4.5-4.15-0.667-0.5-1.4-1.2-2.2-2.1-0.767-0.567-1.767-0.65-3-0.25s-2.483 1.25-3.75 2.55l-1.55 1.8 2.65 0.15 2.45 0.9c2.1 0.933 4.333 2.3 6.7 4.1s3.7 3.183 4 4.15l-0.3 0.85z"/>
			</g>
				<path d="m154.95-22.85v-0.3c-0.733-0.333-1.7-0.683-2.9-1.05-2.4-0.667-4.716-1-6.95-1s-7.217-0.583-14.95-1.75l-10.9-1.75c-2.2 0.233-4.033 0.35-5.5 0.35-3.433 0-7.317-0.217-11.65-0.65-3.167-0.333-5.55-0.35-7.15-0.05-1.367 0.267-4.2 1.167-8.5 2.7-4.267 1.533-7.5 2.816-9.7 3.85-2.367 1.1-4.7 2.434-7 4-2 1.367-3.333 2.167-4 2.4-1.3 0.333-2.9 0.8-4.8 1.4-2.333 0.767-5.167 1.25-8.5 1.45-3.934 0.1-7.05 0.233-9.35 0.4-2.867 0.2-5.617 0.733-8.25 1.6l-3.1 1.25c-0.467-0.033-0.917 0.133-1.35 0.5l0.05 0.15 9.55 2.95c7.767 1.9 15.083 2.75 21.95 2.55 5.5-0.167 12.133-0.067 19.9 0.3 5.9 0.067 10.767-0.7 14.6-2.3 3.767-1.6 7.933-2.817 12.5-3.65 9.4-1.7 14.566-2.65 15.5-2.85 2.733-0.6 8.216-1.583 16.45-2.95 4.533-0.733 7.383-1.583 8.55-2.55 2-1.667 3.83-3.333 5.5-5z" clip-rule="evenodd" fill="#E3F3FF" fill-rule="evenodd"/>
			<g clip-rule="evenodd" fill="#C5DDF0" fill-rule="evenodd">
				<path d="m67.25-4.5c-1.767-0.133-3.767-0.417-6-0.85-1.633-0.133-2.75-0.25-3.35-0.35-1-0.133-2.383-0.733-4.15-1.8-1.8-1.133-2.983-1.783-3.55-1.95l-0.25 0.1c-0.067-0.567 1.083-1.217 3.45-1.95 1.167-0.367 2.35-0.667 3.55-0.9h-5.7c-6.033 0-11.083 0.45-15.15 1.35-1.867 0.4-2.867 0.767-3 1.1l0.35 0.4 4.1 1.15c3.133 0.867 5.7 1.65 7.7 2.35 2 0.667 4.95 1.167 8.85 1.5 2.1 0.167 4.717 0.333 7.85 0.5 2.333 0.233 4.767 0.117 7.3-0.35l-2-0.3z"/>
				<path d="m123.3-21.35c-1.5-0.767-2.783-1.317-3.85-1.65s-1.284-0.883-0.65-1.65c0.363-0.443 0.804-0.701 1.325-0.775-1.351-0.188-3.742-0.547-7.175-1.075-3-0.5-6.333-0.9-10-1.2-4.233-0.333-7.3-0.383-9.2-0.15-2.567 0.3-5.7 1.05-9.4 2.25-4.367 1.4-7.333 2.816-8.9 4.25-1.467 1.3-3.733 2.8-6.8 4.5l-4.2 2.15 2 0.85c2.7 1.3 4.283 2.05 4.75 2.25 1.7 0.7 4.167 1.45 7.4 2.25 2.467 0.6 5.033 1.25 7.7 1.95 1.6 0.4 2.867 0.633 3.8 0.7 0.133 0 0.783 0.083 1.95 0.25 0.3 0.033 0.65 0.017 1.05-0.05 0.333-0.066 1.133-0.066 2.4 0 1.467-0.066 2.95-0.4 4.45-1 2.433-1 5.15-1.95 8.15-2.85-1 0.1-2.717-0.017-5.15-0.35-1.8-0.233-4.45-1.133-7.95-2.7-3.433-1.533-5.45-2.683-6.05-3.45s-0.867-1.3-0.8-1.6c0.067-0.333 0.55-0.583 1.45-0.75 0.633-0.1 1.283-0.317 1.95-0.65 1.1-0.3 3.167-0.517 6.2-0.65 4.033-0.2 6.117-0.283 6.25-0.25 0.567 0.034 2.6 0.45 6.1 1.25 4.233 0.967 6.933 1.55 8.1 1.75 1.767 0.333 3.117 0.467 4.05 0.4l6.7-0.65-9.7-2.35c-1.967-0.5-3.65-1.017-5.05-1.55-1.4-0.566-1.883-0.883-1.45-0.95 0.3-0.067 2.333 0.35 6.1 1.25 3.833 0.933 5.867 1.4 6.1 1.4 0.41 0-0.14-0.383-1.64-1.15z"/>
				<path d="m147.6-17.85c1.733 0 3.35-0.717 4.85-2.15 0.767-0.8 1.6-1.85 2.5-3.15-5.233 0.867-9.633 1.3-13.2 1.3-2.233 0-5.433-0.117-9.6-0.35l-5.55-0.3 5.15 1.8c0.933 0.367 1.933 0.667 3 0.9 0.667 0.133 1.833 0.333 3.5 0.6 0.967 0.167 2.45 0.45 4.45 0.85 1.8 0.333 3.43 0.5 4.9 0.5z"/>
			</g>
				<path d="m129.6-22c3.133 0.7 7.733 0.85 13.8 0.45 3.067-0.2 5.8-0.467 8.2-0.8-3.9 0.233-9.283-0.05-16.15-0.85-4.3-0.467-8.3-1.533-12-3.2l-4.2-2.3c-0.333-0.2-1.383-0.25-3.15-0.15-1.4 0.066-4.283-0.05-8.65-0.35-6.333-0.333-10.567-0.5-12.7-0.5-1.1 0-3.05 0.5-5.85 1.5-3.133 1.1-6.45 2.55-9.95 4.35-2.6 1.333-5.35 2.883-8.25 4.65-2.233 1.333-3.767 2.167-4.6 2.5-1.533 0.733-2.767 1.25-3.7 1.55-1.633 0.567-3.783 0.883-6.45 0.95-3.233 0.1-6.833 0.4-10.8 0.9-4.1 0.5-7.167 1.033-9.2 1.6-1.733 0.5-3.167 1.033-4.3 1.6l-1.2 0.75 3.8 1.35c1.967 0.667 4.6 1.383 7.9 2.15 3.833 0.867 7.033 1.417 9.6 1.65 3.8 0.333 6.583 0.5 8.35 0.5 0.667 0.133 3.217 0.083 7.65-0.15-5-0.567-8.833-0.9-11.5-1-3.833-0.133-9-1.017-15.5-2.65-2.967-0.767-4.867-1.383-5.7-1.85l-0.3-0.5h0.7c0.233 0 1.583-0.233 4.05-0.7 3.167-0.467 6.483-0.733 9.95-0.8 3.167-0.067 6.533 0.083 10.1 0.45 4.1 0.434 7 0.667 8.7 0.7 2.733 0.066 4.8 0.333 6.2 0.8 0.966 0.333 3.066 1.067 6.3 2.2 2.867 0.833 5.95 1.217 9.25 1.15 1.667 0 3.033-0.1 4.1-0.3h-2.35c-0.933 0-2.833-0.55-5.7-1.65-3.8-1.5-6.833-2.667-9.1-3.5-2.867-1.033-5.25-1.983-7.15-2.85l-2.05-1 4.7-2.35c1.433-0.767 3.433-2.1 6-4 1.533-1.1 2.933-1.934 4.2-2.5 1.833-0.8 4.267-1.467 7.3-2 2.633-0.467 6.55-0.5 11.75-0.1 6.7 0.533 10.167 0.8 10.4 0.8 2 0 4.583 0.367 7.75 1.1 1.9 0.434 5.15 1.233 9.75 2.4z" clip-rule="evenodd" fill="#fff" fill-rule="evenodd"/>
					<path d="m131.7-23.5c6.133 1.3 11.65 1.75 16.55 1.35 3.233-0.333 5.467-0.667 6.7-1 0.066-2.4 0.283-5.617 0.65-9.65 0.6-6.2 1.383-11.55 2.35-16.05 1.667-7.667 2.833-13.333 3.5-17-2.5-1.434-5.417-2.833-8.75-4.2-6.667-2.733-12.083-4-16.25-3.8-3.7 0.2-9.217 0.1-16.55-0.3-8.533-0.467-14.183-0.7-16.95-0.7-4.1 0-10.3-0.917-18.6-2.75-9.4-2.067-14.65-3.15-15.75-3.25-2.2-0.233-3.8-0.233-4.8 0-1.566 0.5-3.183 1-4.85 1.5-4.1 1.233-7.667 2.5-10.7 3.8-2.867 1.267-4.633 2-5.3 2.2-0.7 0.2-1.284 0.55-1.75 1.05-0.467 0.6-0.867 1.033-1.2 1.3-1.167 1.1-3.517 1.65-7.05 1.65-3.733 0-6.3 0.283-7.7 0.85-1.033 0.767-1.967 1.317-2.8 1.65-1.4 0.566-3.067 2.367-5 5.4 1.333-1.133 2.716-1.75 4.15-1.85 0.867-0.067 2.2-0.017 4 0.15 1.533 0 3.383 1.35 5.55 4.05 1.633 2.033 3.9 5.45 6.8 10.25 1.7 2.867 2.917 5.433 3.65 7.7l0.6 2.55 0.2-1.7c0.1-1.267 0.15-2.317 0.15-3.15 0-0.934-0.15-2.15-0.45-3.65-0.167-0.967-0.633-3.083-1.4-6.35-0.5-2.133-0.833-4.483-1-7.05-0.167-2.4-0.333-3.883-0.5-4.45-0.333-1.133 0.816-2.15 3.45-3.05 2.467-0.867 5.783-1.483 9.95-1.85 2.667-0.233 6.517-0.75 11.55-1.55 3.934-0.267 6.533 0.717 7.8 2.95 1.7 3 2.3 8.6 1.8 16.8 0.167-2.033 0.367-3.483 0.6-4.35 0.1-0.4 0.55-1.633 1.35-3.7 0.566-1.467 1.3-3.5 2.2-6.1 1.267-1.967 3.7-3.15 7.3-3.55 0.933-0.1 2.433-0.083 4.5 0.05 2.4 0.133 4.833 0.383 7.3 0.75l1.95 0.35c7.1 1.333 11.367 3.066 12.8 5.2 2.567 3.667 3.967 6.217 4.2 7.65 0.433 3.066-0.017 6.4-1.35 10-0.667 1.767-0.833 3.466-0.5 5.1 0.467 2.2 0.683 3.55 0.65 4.05-0.033 0.9 0.033 1.6 0.2 2.1 0.167 0.433 0.466 0.8 0.9 1.1 0.3 0.833 0.667 1.55 1.1 2.15 2.37 3.3 7.28 5.75 14.75 7.35z" clip-rule="evenodd" fill="#97B4C4" fill-rule="evenodd"/>
				<path d="m119.9-74.15c-8.533-0.467-14.183-0.7-16.95-0.7-4.1 0-10.3-0.917-18.6-2.75-9.4-2.067-14.65-3.15-15.75-3.25-2.2-0.233-3.8-0.233-4.8 0-1.566 0.5-3.183 1-4.85 1.5-4.1 1.233-7.667 2.5-10.7 3.8-2.867 1.267-4.633 2-5.3 2.2-0.7 0.2-1.284 0.55-1.75 1.05-0.467 0.6-0.867 1.033-1.2 1.3-1.167 1.1-3.517 1.65-7.05 1.65-3.667 0-6.2 0.267-7.6 0.8-1.033 0.733-1.917 1.267-2.65 1.6 1.8 0.3 3.55 0.45 5.25 0.45 2.633 0 5.417 1.767 8.35 5.3l3.65 5.35-0.65-4.5c-0.367-3.2-0.483-5.367-0.35-6.5 0.167-1.434 1-2.833 2.5-4.2 1.733-1.567 4.167-2.883 7.3-3.95 5-1.767 8.25-2.867 9.75-3.3 3.433-1.033 6.017-1.5 7.75-1.4 3.7 0.2 6.533 2.633 8.5 7.3 0.6 1.434 1.1 3.017 1.5 4.75l0.35 2.15 1.35-1.6c1-1.3 1.767-2.434 2.3-3.4 0.467-0.8 1.133-2.183 2-4.15 1.2-1.467 3.317-1.867 6.35-1.2 5.633 1.233 9.367 1.933 11.2 2.1 3.6 0.4 8.867 0.367 15.8-0.1 6.133-0.4 10.566 0.65 13.3 3.15 0.8 0.733 1.917 1.933 3.35 3.6 1.433 1.533 3 2.733 4.7 3.6 2.333 1.233 4.9 2.983 7.7 5.25 2.233 1.8 5.05 3.383 8.45 4.75 0.933 0.367 2.267-0.633 4-3 1.867-2.566 2.983-3.9 3.35-4 0.333-2 0.667-3.783 1-5.35-2.5-1.434-5.417-2.833-8.75-4.2-6.667-2.733-12.083-4-16.25-3.8-3.7 0.2-9.22 0.1-16.55-0.3z" clip-rule="evenodd" fill="#7D9AAB" fill-rule="evenodd"/>
				<g clip-rule="evenodd" fill="#fff" fill-rule="evenodd">
					<path d="m33.75-14.65c-0.633 0-0.95 0.333-0.95 1s0.317 1 0.95 1c0.667 0 1-0.333 1-1 0-0.666-0.333-1-1-1z"/>
					<path d="m29.7-17.1c-0.5 0.1-0.75 0.417-0.75 0.95v0.65c0 0.633 0.333 0.95 1 0.95s1-0.317 1-0.95v-0.65l-0.05-0.2c0.2 0.4 0.567 0.55 1.1 0.45 0.5-0.1 0.75-0.417 0.75-0.95v-0.5c0-0.667-0.333-1-1-1s-1 0.333-1 1v0.5l0.05 0.2c-0.233-0.4-0.6-0.55-1.1-0.45z"/>
					<path d="m29.45-20.65c-0.633 0-0.95 0.333-0.95 1s0.317 1 0.95 1 0.95-0.333 0.95-1c0-0.666-0.317-1-0.95-1z"/>
					<path d="m30.6-23.35c-0.633 0-0.95 0.333-0.95 1s0.317 1 0.95 1c0.667 0 1-0.333 1-1s-0.333-1-1-1z"/>
					<path d="m34.45-20.55c-0.2-0.2-0.434-0.3-0.7-0.3l-0.35 0.1 0.05-0.1v-0.15c0-0.667-0.333-1-1-1s-1 0.333-1 1v0.15c0 0.367 0.15 0.633 0.45 0.8 0.267 0.167 0.567 0.2 0.9 0.1-0.066 0.733 0.25 1.1 0.95 1.1 0.633 0 0.95-0.317 0.95-0.95 0.267 0.2 0.517 0.3 0.75 0.3 0.633 0 0.95-0.333 0.95-1s-0.316-1-0.95-1c-0.6 0-0.933 0.317-1 0.95z"/>
					<path d="m34.6-18.15c-0.633 0-0.95 0.333-0.95 1s0.317 1 0.95 1c0.667 0 1-0.333 1-1 0-0.666-0.333-1-1-1z"/>
					<path d="m36.75-23.85c-0.633 0-0.95 0.333-0.95 1s0.317 1 0.95 1c0.667 0 1-0.333 1-1s-0.333-1-1-1z"/>
					<path d="m36.8-18.95c-0.133 0.6 0.083 1 0.65 1.2 0.6 0.2 1 0.017 1.2-0.55 0.133-0.233 0.217-0.383 0.25-0.45 0.133-0.6-0.083-0.983-0.65-1.15-0.6-0.2-1.017-0.033-1.25 0.5l-0.2 0.45z"/>
					<path d="m37.75-17.5c-0.633 0-0.95 0.333-0.95 1s0.317 1 0.95 1c0.667 0 1-0.333 1-1s-0.333-1-1-1z"/>
					<path d="m37.1-15.35c-0.633 0-0.95 0.333-0.95 1s0.317 1 0.95 1c0.667 0 1-0.333 1-1s-0.333-1-1-1z"/>
					<path d="m31.75-14c-0.633 0-0.95 0.333-0.95 1s0.317 1 0.95 1c0.667 0 1-0.333 1-1s-0.333-1-1-1z"/>
					<path d="m31.1-11.85c-0.633 0-0.95 0.333-0.95 1s0.317 1 0.95 1c0.667 0 1-0.333 1-1s-0.333-1-1-1z"/>
					<path d="m35.75-13.5c-0.633 0-0.95 0.333-0.95 1s0.317 1 0.95 1c0.667 0 1-0.333 1-1s-0.333-1-1-1z"/>
					<path d="m41.1-14c0.667 0 1-0.333 1-1s-0.333-1-1-1c-0.633 0-0.95 0.333-0.95 1s0.317 1 0.95 1z"/>
					<path d="m40.45-22.5c-0.633 0-0.95 0.333-0.95 1s0.317 1 0.95 1 0.95-0.333 0.95-1-0.317-1-0.95-1z"/>
					<path d="m31.6-25.35c0.667 0 1-0.333 1-1s-0.333-1-1-1c-0.633 0-0.95 0.333-0.95 1s0.317 1 0.95 1z"/>
					<path d="m33.45-25.15c-0.633 0-0.95 0.333-0.95 1s0.317 1 0.95 1 0.95-0.333 0.95-1c0-0.666-0.317-1-0.95-1z"/>
					<path d="m33.1-28.85c-0.633 0-0.95 0.333-0.95 1s0.317 1 0.95 1c0.667 0 1-0.333 1-1s-0.333-1-1-1z"/>
					<path d="m28.95-26c-0.633 0-0.95 0.333-0.95 1s0.317 1 0.95 1 0.95-0.333 0.95-1-0.317-1-0.95-1z"/>
					<path d="m28.25-23.15c0-0.667-0.333-1-1-1s-1 0.333-1 1v0.15c0 0.633 0.333 0.95 1 0.95s1-0.317 1-0.95v-0.15z"/>
					<path d="m27.1-28.85c-0.633 0-0.95 0.333-0.95 1s0.317 1 0.95 1c0.667 0 1-0.333 1-1s-0.333-1-1-1z"/>
					<path d="m30.1-31.15c-0.367 0-0.633 0.133-0.8 0.4-0.167 0.233-0.216 0.5-0.15 0.8l-0.2-0.05c-0.633 0-0.95 0.333-0.95 1s0.317 1 0.95 1c0.333 0 0.583-0.133 0.75-0.4 0.167-0.233 0.216-0.5 0.15-0.8l0.25 0.05c0.667 0 1-0.333 1-1 0-0.666-0.333-1-1-1z"/>
					<path d="m28.1-31.35c0.667 0 1-0.333 1-1s-0.333-1-1-1c-0.633 0-0.95 0.333-0.95 1s0.317 1 0.95 1z"/>
					<path d="m27.25-37.5c0.667 0 1-0.333 1-1s-0.333-1-1-1c-0.633 0-0.95 0.333-0.95 1s0.317 1 0.95 1z"/>
					<path d="m28.95-34.5c0.633 0 0.95-0.333 0.95-1s-0.316-1-0.95-1c-0.5 0-0.8 0.2-0.9 0.6-0.133-0.5-0.45-0.75-0.95-0.75-0.633 0-0.95 0.333-0.95 1s0.317 1 0.95 1c0.4 0 0.7-0.217 0.9-0.65 0.067 0.533 0.383 0.8 0.95 0.8z"/>
					<path d="m30.1-37.15c0.667 0 1-0.333 1-1s-0.333-1-1-1c-0.633 0-0.95 0.333-0.95 1s0.317 1 0.95 1z"/>
					<path d="m33.05-33.25l-0.1 0.1 0.2-0.3c-0.066 0.733 0.25 1.1 0.95 1.1 0.667 0 1-0.333 1-1s-0.333-1-1-1c-0.434 0-0.733 0.2-0.9 0.6 0.033-0.433-0.15-0.767-0.55-1s-0.767-0.167-1.1 0.2l-0.25 0.35c-0.133-0.2-0.367-0.3-0.7-0.3-0.633 0-0.95 0.333-0.95 1s0.317 1 0.95 1c0.333 0 0.583-0.133 0.75-0.4 0.267 0.3 0.583 0.417 0.95 0.35 0.4-0.033 0.65-0.266 0.75-0.7z"/>
					<path d="m33.75-37.65c-0.633 0-0.95 0.333-0.95 1s0.317 1 0.95 1c0.667 0 1-0.333 1-1 0-0.666-0.333-1-1-1z"/>
					<path d="m39.8-31c0.434-0.466 0.434-0.933 0-1.4l-0.15-0.15c-0.4-0.4-0.816-0.433-1.25-0.1 0.2-0.333 0.217-0.667 0.05-1-0.133-0.333-0.417-0.5-0.85-0.5-0.2 0-0.383 0.05-0.55 0.15 0.034-0.3-0.033-0.566-0.2-0.8-0.167-0.233-0.417-0.35-0.75-0.35-0.633 0-0.95 0.333-0.95 1s0.317 1 0.95 1c0.167 0 0.35-0.066 0.55-0.2-0.066 0.3-0.017 0.566 0.15 0.8 0.167 0.267 0.434 0.4 0.8 0.4 0.033 0 0.2-0.05 0.5-0.15-0.3 0.4-0.267 0.783 0.1 1.15l0.2 0.2c0.467 0.467 0.933 0.45 1.4-0.05z"/>
					<path d="m42.6-28.85c0.667 0 1-0.333 1-1s-0.333-1-1-1l-0.25 0.05c-0.067-0.567-0.367-0.85-0.9-0.85-0.633 0-0.95 0.333-0.95 1s0.317 1 0.95 1l0.2-0.05c0.067 0.567 0.383 0.85 0.95 0.85z"/>
					<path d="m34.95-32c-0.633 0-0.95 0.333-0.95 1s0.317 1 0.95 1 0.95-0.333 0.95-1-0.317-1-0.95-1z"/>
					<path d="m23.75-36.65c-0.633 0-0.95 0.317-0.95 0.95 0 0.667 0.317 1 0.95 1-0.267 0.167-0.417 0.433-0.45 0.8 0 0.333 0.117 0.6 0.35 0.8-0.067 0.733 0.25 1.1 0.95 1.1 0.467 0 0.767-0.233 0.9-0.7 0.133-0.434 0.033-0.783-0.3-1.05 0.066-0.7-0.233-1.066-0.9-1.1 0.367-0.233 0.5-0.583 0.4-1.05-0.1-0.5-0.417-0.75-0.95-0.75z"/>
					<path d="m23.45-39.3c-0.567 0.067-0.833 0.417-0.8 1.05 0.033 0.6 0.35 0.9 0.95 0.9h0.1c0.2 0.133 0.383 0.2 0.55 0.2 0.4 0 0.683-0.183 0.85-0.55 0.167-0.3 0.167-0.617 0-0.95 0.3-0.3 0.383-0.65 0.25-1.05-0.133-0.434-0.434-0.65-0.9-0.65-0.667 0-1 0.35-1 1.05z"/>
					<path d="m25.45-31.15c-0.434 0-0.733 0.184-0.9 0.55-0.133 0.333-0.1 0.667 0.1 1-0.2 0.333-0.233 0.667-0.1 1 0.167 0.4 0.467 0.6 0.9 0.6s0.716-0.2 0.85-0.6c0.133-0.333 0.1-0.667-0.1-1 0.2-0.333 0.233-0.667 0.1-1-0.133-0.366-0.417-0.55-0.85-0.55z"/>
					<path d="m25.45-41.85c0.367 0 0.633-0.167 0.8-0.5 0.167-0.267 0.183-0.567 0.05-0.9 0.333 0.067 0.633 0.034 0.9-0.1 0.267-0.167 0.4-0.434 0.4-0.8v-0.2l-0.1-0.35c0.333-0.267 0.45-0.633 0.35-1.1-0.133-0.467-0.434-0.7-0.9-0.7-0.4 0-0.684 0.15-0.85 0.45-0.167 0.3-0.2 0.6-0.1 0.9l-0.1 0.1c-0.067-0.633-0.383-0.95-0.95-0.95-0.2 0-0.383 0.05-0.55 0.15 0-0.667-0.316-1-0.95-1s-0.95 0.333-0.95 1 0.317 1 0.95 1c0.2 0 0.367-0.05 0.5-0.15 0 0.667 0.333 1 1 1 0.3 0 0.517-0.1 0.65-0.3v0.15l0.05 0.35-0.2-0.05c-0.6 0-0.934 0.316-1 0.95-0.3-0.267-0.65-0.333-1.05-0.2-0.433 0.167-0.65 0.483-0.65 0.95v0.3c0 0.633 0.333 0.95 1 0.95s1-0.316 1-0.95v-0.25c0.167 0.167 0.4 0.25 0.7 0.25z"/>
					<path d="m29.25-45.65c-0.633 0-0.95 0.333-0.95 1s0.317 1 0.95 1c0.667 0 1-0.333 1-1 0-0.666-0.333-1-1-1z"/>
					<path d="m25.9-50.15c0-0.667-0.316-1-0.95-1s-0.95 0.333-0.95 1 0.317 1 0.95 1 0.95-0.333 0.95-1z"/>
					<path d="m27.6-47c0.533 0 0.85-0.267 0.95-0.8s-0.066-0.9-0.5-1.1c0.233-0.333 0.267-0.683 0.1-1.05-0.133-0.367-0.433-0.55-0.9-0.55-0.533 0-0.85 0.267-0.95 0.8-0.066 0.533 0.1 0.9 0.5 1.1-0.233 0.3-0.267 0.633-0.1 1 0.167 0.4 0.467 0.6 0.9 0.6z"/>
					<path d="m29.6-48.35c0.667 0 1-0.333 1-1s-0.333-1-1-1c-0.633 0-0.95 0.333-0.95 1s0.317 1 0.95 1z"/>
					<path d="m29.25-53c-0.633 0-0.95 0.333-0.95 1s0.317 1 0.95 1c0.667 0 1-0.333 1-1s-0.333-1-1-1z"/>
					<path d="m25.6-52.35c0 0.633 0.333 0.95 1 0.95s1-0.316 1-0.95v-0.15c0-0.667-0.333-1-1-1s-1 0.333-1 1v0.15z"/>
					<path d="m25.95-56.65c-0.633 0-0.95 0.333-0.95 1s0.317 1 0.95 1 0.95-0.333 0.95-1c0-0.666-0.317-1-0.95-1z"/>
					<path d="m23.95-55.35c0.633 0 0.95-0.333 0.95-1s-0.316-1-0.95-1-0.95 0.333-0.95 1 0.317 1 0.95 1z"/>
					<path d="m21.75-54.5c0.667 0 1-0.333 1-1s-0.333-1-1-1c-0.633 0-0.95 0.333-0.95 1s0.317 1 0.95 1z"/>
					<path d="m23.25-60c-0.633 0-0.95 0.333-0.95 1s0.317 1 0.95 1c0.667 0 1-0.333 1-1s-0.333-1-1-1z"/>
					<path d="m21.05-58.9c0.167-0.233 0.217-0.5 0.15-0.8 0.2 0.133 0.383 0.2 0.55 0.2 0.567 0 0.883-0.3 0.95-0.9l0.25 0.05c0.633 0 0.95-0.333 0.95-1s-0.316-1-0.95-1c-0.267 0-0.483 0.083-0.65 0.25 0.133-0.333 0.117-0.65-0.05-0.95s-0.433-0.45-0.8-0.45c-0.633 0-0.95 0.333-0.95 1s0.317 1 0.95 1c0.233 0 0.433-0.083 0.6-0.25l-0.05 0.3-0.25-0.05c-0.333 0-0.583 0.133-0.75 0.4-0.167 0.233-0.233 0.5-0.2 0.8-0.133-0.133-0.316-0.2-0.55-0.2-0.633 0-0.95 0.333-0.95 1s0.317 1 0.95 1c0.367 0 0.633-0.133 0.8-0.4z"/>
					<path d="m24.95-61.5c0.633 0 0.95-0.333 0.95-1s-0.316-1-0.95-1-0.95 0.333-0.95 1 0.317 1 0.95 1z"/>
					<path d="m25.1-59.15c0 0.633 0.333 0.95 1 0.95s1-0.317 1-0.95v-0.2c0-0.667-0.333-1-1-1s-1 0.333-1 1v0.2z"/>
					<path d="m28.6-57.5c0.667 0 1-0.333 1-1s-0.333-1-1-1c-0.633 0-0.95 0.333-0.95 1s0.317 1 0.95 1z"/>
					<path d="m30.75-58c0.667 0 1-0.333 1-1s-0.333-1-1-1c-0.633 0-0.95 0.333-0.95 1s0.317 1 0.95 1z"/>
					<path d="m23.45-53c-0.633 0-0.95 0.333-0.95 1s0.317 1 0.95 1 0.95-0.333 0.95-1-0.317-1-0.95-1z"/>
					<path d="m21.45-51.85c-0.633 0-0.95 0.333-0.95 1s0.317 1 0.95 1 0.95-0.333 0.95-1-0.317-1-0.95-1z"/>
					<path d="m45.6-24.85c-0.633 0-0.95 0.333-0.95 1s0.317 1 0.95 1c0.667 0 1-0.333 1-1s-0.333-1-1-1z"/>
					<path d="m45.6-28c-0.633 0-0.95 0.333-0.95 1s0.317 1 0.95 1c0.667 0 1-0.333 1-1s-0.333-1-1-1z"/>
					<path d="m44.75-31.15c-0.633 0-0.95 0.333-0.95 1s0.317 1 0.95 1c0.667 0 1-0.333 1-1 0-0.666-0.333-1-1-1z"/>
					<path d="m47.25-32.35c-0.633 0-0.95 0.333-0.95 1s0.317 1 0.95 1c0.667 0 1-0.333 1-1s-0.333-1-1-1z"/>
					<path d="m47.35-34.45c-0.167-0.5-0.533-0.733-1.1-0.7-0.567 0.067-0.833 0.4-0.8 1 0 0.367 0.15 0.7 0.45 1 0.434 0.434 0.883 0.434 1.35 0 0.433-0.4 0.467-0.833 0.1-1.3z"/>
					<path d="m45.95-36c0.633 0 0.95-0.333 0.95-1s-0.316-1-0.95-1-0.95 0.333-0.95 1 0.317 1 0.95 1z"/>
					<path d="m50.45-38.35c0.033-0.233-0.05-0.45-0.25-0.65-0.2-0.167-0.417-0.267-0.65-0.3 0-0.7-0.316-1.05-0.95-1.05-0.567 0-0.883 0.283-0.95 0.85-0.066 0.567 0.15 0.934 0.65 1.1-0.066 0.333 0.017 0.633 0.25 0.9 0.267 0.3 0.583 0.4 0.95 0.3 0.533-0.133 0.85-0.516 0.95-1.15z"/>
					<path d="m49.05-34.05c0.2 0.367 0.5 0.55 0.9 0.55 0.6 0 0.917-0.3 0.95-0.9s-0.233-0.95-0.8-1.05c-0.167-0.366-0.45-0.55-0.85-0.55-0.6 0-0.917 0.3-0.95 0.9s0.217 0.95 0.75 1.05z"/>
					<path d="m51-34.85c0.233 0.233 0.483 0.35 0.75 0.35s0.5-0.1 0.7-0.3c0.233-0.2 0.333-0.433 0.3-0.7-0.067-0.633-0.367-1.017-0.9-1.15s-0.917 0.067-1.15 0.6c-0.2 0.5-0.1 0.9 0.3 1.2z"/>
					<path d="m55.25-40c-0.633 0-0.95 0.333-0.95 1s0.317 1 0.95 1c0.667 0 1-0.333 1-1s-0.333-1-1-1z"/>
					<path d="m53.95-41.35c0.633 0 0.95-0.333 0.95-1s-0.316-1-0.95-1-0.95 0.333-0.95 1 0.317 1 0.95 1z"/>
					<path d="m56.75-42.65c0.667 0 1-0.333 1-1s-0.333-1-1-1c-0.633 0-0.95 0.333-0.95 1s0.317 1 0.95 1z"/>
					<path d="m59.25-44.65c-0.633 0-0.95 0.333-0.95 1s0.317 1 0.95 1c0.667 0 1-0.333 1-1 0-0.666-0.333-1-1-1z"/>
					<path d="m60.45-47.15c-0.633 0-0.95 0.333-0.95 1s0.317 1 0.95 1 0.95-0.333 0.95-1c0-0.666-0.317-1-0.95-1z"/>
					<path d="m62.25-48.5c0.667 0 1-0.333 1-1s-0.333-1-1-1c-0.633 0-0.95 0.333-0.95 1s0.317 1 0.95 1z"/>
					<path d="m64.45-52.15c-0.633 0-0.95 0.333-0.95 1s0.317 1 0.95 1 0.95-0.333 0.95-1c0-0.666-0.317-1-0.95-1z"/>
					<path d="m61.25-55.85c-0.633 0-0.95 0.333-0.95 1s0.317 1 0.95 1c0.667 0 1-0.333 1-1s-0.333-1-1-1z"/>
					<path d="m59.25-51.15c0.667 0 1-0.333 1-1s-0.333-1-1-1c-0.633 0-0.95 0.333-0.95 1s0.317 1 0.95 1z"/>
					<path d="m59.05-49.45c-0.133 0.333-0.117 0.65 0.05 0.95 0.167 0.333 0.45 0.5 0.85 0.5 0.367 0 0.633-0.167 0.8-0.5 0.167-0.3 0.183-0.617 0.05-0.95 0.133-0.3 0.117-0.6-0.05-0.9-0.167-0.333-0.433-0.5-0.8-0.5-0.4 0-0.684 0.167-0.85 0.5-0.167 0.3-0.183 0.6-0.05 0.9z"/>
					<path d="m53.1-45.5c-0.633 0-0.95 0.333-0.95 1s0.317 1 0.95 1c0.667 0 1-0.333 1-1s-0.333-1-1-1z"/>
					<path d="m48.6-41c0.433 0 0.733-0.2 0.9-0.6 0.133-0.367 0.083-0.717-0.15-1.05 0.066-0.3 0.017-0.566-0.15-0.8-0.167-0.267-0.417-0.4-0.75-0.4-0.434 0-0.733 0.2-0.9 0.6-0.133 0.367-0.1 0.717 0.1 1.05-0.066 0.3-0.017 0.566 0.15 0.8 0.167 0.267 0.433 0.4 0.8 0.4z"/>
					<path d="m45.95-42c0.633 0 0.95-0.333 0.95-1s-0.316-1-0.95-1c-0.5 0-0.817 0.217-0.95 0.65s-0.05 0.8 0.25 1.1l-0.3-0.1c-0.5 0-0.817 0.233-0.95 0.7-0.133 0.434-0.033 0.8 0.3 1.1 0.067 0.6 0.383 0.9 0.95 0.9 0.5 0 0.817-0.233 0.95-0.7 0.133-0.434 0.033-0.8-0.3-1.1-0.033-0.233-0.133-0.45-0.3-0.65l0.35 0.1z"/>
					<path d="m43.45-39.35c-0.633 0-0.95 0.333-0.95 1s0.317 1 0.95 1 0.95-0.333 0.95-1-0.317-1-0.95-1z"/>
					<path d="m39.45-41.35c0.633 0 0.95-0.333 0.95-1s-0.316-1-0.95-1-0.95 0.333-0.95 1 0.317 1 0.95 1z"/>
					<path d="m36.95-44.85c0.633 0 0.95-0.333 0.95-1s-0.316-1-0.95-1-0.95 0.333-0.95 1 0.317 1 0.95 1z"/>
					<path d="m34.45-48.5c0.566 0 0.883-0.283 0.95-0.85s-0.15-0.934-0.65-1.1c0.3-0.3 0.383-0.65 0.25-1.05-0.133-0.433-0.433-0.65-0.9-0.65-0.567 0-0.883 0.283-0.95 0.85-0.066 0.533 0.133 0.883 0.6 1.05-0.3 0.3-0.383 0.667-0.25 1.1 0.167 0.434 0.483 0.65 0.95 0.65z"/>
					<path d="m33.95-47.65c-0.633 0-0.95 0.333-0.95 1s0.317 1 0.95 1 0.95-0.333 0.95-1c0-0.666-0.317-1-0.95-1z"/>
					<path d="m37.45-47.5c0.633 0 0.95-0.333 0.95-1s-0.316-1-0.95-1-0.95 0.333-0.95 1 0.317 1 0.95 1z"/>
					<path d="m30.75-52.5c0.667 0 1-0.333 1-1s-0.333-1-1-1c-0.633 0-0.95 0.333-0.95 1s0.317 1 0.95 1z"/>
					<path d="m45.75-46.85c0.667 0 1-0.333 1-1s-0.333-1-1-1c-0.633 0-0.95 0.333-0.95 1s0.317 1 0.95 1z"/>
					<path d="m48.75-51.15c-0.633 0-0.95 0.333-0.95 1s0.317 1 0.95 1c0.667 0 1-0.333 1-1 0-0.666-0.333-1-1-1z"/>
					<path d="m49.45-45.65c0.633 0 0.95-0.333 0.95-1s-0.316-1-0.95-1-0.95 0.333-0.95 1 0.317 1 0.95 1z"/>
					<path d="m51.95-52c-0.633 0-0.95 0.333-0.95 1s0.317 1 0.95 1 0.95-0.333 0.95-1-0.317-1-0.95-1z"/>
					<path d="m55.1-51.5c0.667 0 1-0.333 1-1s-0.333-1-1-1c-0.167 0-0.333 0.05-0.5 0.15-0.133-0.1-0.3-0.15-0.5-0.15-0.633 0-0.95 0.333-0.95 1s0.317 1 0.95 1c0.2 0 0.367-0.05 0.5-0.15 0.167 0.1 0.333 0.15 0.5 0.15z"/>
					<path d="m57.1-55.85c-0.633 0-0.95 0.333-0.95 1s0.317 1 0.95 1c0.667 0 1-0.333 1-1s-0.333-1-1-1z"/>
					<path d="m58.95-56.85c-0.633 0-0.95 0.333-0.95 1s0.317 1 0.95 1 0.95-0.333 0.95-1-0.317-1-0.95-1z"/>
					<path d="m55.5-48.85c-0.067 0.267-0.05 0.517 0.05 0.75-0.2 0.1-0.35 0.25-0.45 0.45l-0.4 0.05c0-0.6-0.317-0.9-0.95-0.9s-0.95 0.333-0.95 1 0.317 1 0.95 1l0.4-0.1c0.067 0.633 0.383 0.95 0.95 0.95 0.367 0 0.65-0.167 0.85-0.5 0.367 0 0.633-0.167 0.8-0.5 0.167-0.3 0.183-0.617 0.05-0.95 0.467-0.167 0.667-0.534 0.6-1.1-0.1-0.533-0.417-0.8-0.95-0.8l-0.2 0.05c0.4-0.233 0.55-0.6 0.45-1.1-0.1-0.533-0.417-0.8-0.95-0.8-0.633 0-0.95 0.333-0.95 1s0.317 1 0.95 1l0.2-0.05c-0.233 0.133-0.383 0.317-0.45 0.55z"/>
					<path d="m51.6-46.85c-0.633 0-0.95 0.333-0.95 1s0.317 1 0.95 1c0.667 0 1-0.333 1-1s-0.333-1-1-1z"/>
					<path d="m51.1-42c0.667 0 1-0.333 1-1s-0.333-1-1-1c-0.633 0-0.95 0.333-0.95 1s0.317 1 0.95 1z"/>
					<path d="m53.25-37.35h0.2c0.633 0 0.95-0.333 0.95-1s-0.316-1-0.95-1h-0.2c-0.3 0-0.533 0.117-0.7 0.35-0.066-0.333-0.216-0.566-0.45-0.7 0.633 0 0.95-0.333 0.95-1 0-0.633-0.316-0.95-0.95-0.95-0.533 0-0.85 0.25-0.95 0.75-0.1 0.467 0.033 0.817 0.4 1.05-0.633 0.033-0.95 0.367-0.95 1 0.033 0.667 0.367 1 1 1 0.333 0 0.566-0.1 0.7-0.3 0.133 0.533 0.45 0.8 0.95 0.8z"/>
					<path d="m42.6-51.15c0.667 0 1-0.333 1-1s-0.333-1-1-1c-0.633 0-0.95 0.333-0.95 1s0.317 1 0.95 1z"/>
					<path d="m40.25-57.35c-0.2-0.167-0.45-0.217-0.75-0.15-0.267 0.1-0.467 0.267-0.6 0.5-0.3 0.5-0.183 0.95 0.35 1.35 0.233 0.2 0.567 0.3 1 0.3 0.633 0.033 0.967-0.284 1-0.95 0-0.667-0.317-1.017-0.95-1.05h-0.05z"/>
					<path d="m42.45-55.15l0.2-0.05c0.167 0.233 0.434 0.35 0.8 0.35 0.566 0 0.883-0.3 0.95-0.9 0.133 0.4 0.417 0.6 0.85 0.6 0.667 0 1-0.333 1-1s-0.333-1-1-1c-0.567 0-0.883 0.3-0.95 0.9-0.167-0.4-0.45-0.6-0.85-0.6l-0.25 0.05c-0.167-0.233-0.417-0.35-0.75-0.35-0.633 0-0.95 0.333-0.95 1s0.317 1 0.95 1z"/>
					<path d="m40.25-62.35c-0.633 0-0.95 0.316-0.95 0.95-0.4 0.2-0.566 0.567-0.5 1.1 0.1 0.533 0.417 0.8 0.95 0.8 0.633 0 0.95-0.316 0.95-0.95l0.15-0.1c0.066 0.033 0.217 0.1 0.45 0.2-0.033 0.3 0.034 0.566 0.2 0.8 0.167 0.267 0.417 0.4 0.75 0.4 0.633 0 0.95-0.316 0.95-0.95 0.033-0.667-0.25-1.017-0.85-1.05 0.066-0.3 0.017-0.566-0.15-0.8-0.167-0.267-0.417-0.4-0.75-0.4-0.2 0-0.4 0.066-0.6 0.2-0.2-0.133-0.4-0.2-0.6-0.2z"/>
					<path d="m42.6-64.85c0.667 0 1-0.333 1-1s-0.333-1-1-1c-0.633 0-0.95 0.333-0.95 1s0.317 1 0.95 1z"/>
					<path d="m44.45-65.5c0 0.633 0.333 0.95 1 0.95s1-0.317 1-0.95v-0.35c0-0.667-0.333-1-1-1s-1 0.333-1 1v0.35z"/>
					<path d="m44.95-61c0.633 0 0.95-0.333 0.95-1s-0.316-1-0.95-1-0.95 0.333-0.95 1 0.317 1 0.95 1z"/>
					<path d="m47.95-57.15c-0.633 0-0.95 0.333-0.95 1s0.317 1 0.95 1 0.95-0.333 0.95-1c0-0.666-0.317-1-0.95-1z"/>
					<path d="m44.6-58.35c0.667 0 1-0.333 1-1s-0.333-1-1-1c-0.633 0-0.95 0.333-0.95 1s0.317 1 0.95 1z"/>
					<path d="m46.95-59.15c0.633 0 0.95-0.333 0.95-1s-0.316-1-0.95-1-0.95 0.333-0.95 1 0.317 1 0.95 1z"/>
					<path d="m48.1-61c0.667 0 1-0.333 1-1s-0.333-1-1-1c-0.633 0-0.95 0.333-0.95 1s0.317 1 0.95 1z"/>
					<path d="m49.25-59.35c-0.633 0-0.95 0.333-0.95 1s0.317 1 0.95 1c0.667 0 1-0.333 1-1s-0.333-1-1-1z"/>
					<path d="m50.95-60.5c0.633 0 0.95-0.333 0.95-1s-0.316-1-0.95-1-0.95 0.333-0.95 1 0.317 1 0.95 1z"/>
					<path d="m49.6-64.35c0.667 0 1-0.333 1-1s-0.333-1-1-1c-0.633 0-0.95 0.333-0.95 1s0.317 1 0.95 1z"/>
					<path d="m52.1-65.5c0.667 0 1-0.333 1-1s-0.333-1-1-1c-0.633 0-0.95 0.333-0.95 1s0.317 1 0.95 1z"/>
					<path d="m54.75-64.65c-0.633 0-0.95 0.333-0.95 1s0.317 1 0.95 1c0.667 0 1-0.333 1-1 0-0.666-0.333-1-1-1z"/>
					<path d="m54.75-65.65c0.667 0 1-0.333 1-1s-0.333-1-1-1c-0.633 0-0.95 0.333-0.95 1s0.317 1 0.95 1z"/>
					<path d="m55.95-68.35c0.633 0 0.95-0.333 0.95-1s-0.316-1-0.95-1-0.95 0.333-0.95 1 0.317 1 0.95 1z"/>
					<path d="m60.6-65.85c0.667 0 1-0.333 1-1s-0.333-1-1-1c-0.633 0-0.95 0.333-0.95 1s0.317 1 0.95 1z"/>
					<path d="m61.1-67.85c0.667 0 1-0.333 1-1s-0.333-1-1-1c-0.633 0-0.95 0.333-0.95 1s0.317 1 0.95 1z"/>
					<path d="m64.75-69c0.667 0 1-0.333 1-1s-0.333-1-1-1c-0.633 0-0.95 0.333-0.95 1s0.317 1 0.95 1z"/>
					<path d="m66.6-68.35c0.667 0 1-0.333 1-1s-0.333-1-1-1c-0.633 0-0.95 0.333-0.95 1s0.317 1 0.95 1z"/>
					<path d="m58.1-66c0.667 0 1-0.333 1-1s-0.333-1-1-1c-0.633 0-0.95 0.333-0.95 1s0.317 1 0.95 1z"/>
					<path d="m57.95-65.5c-0.633 0-0.95 0.333-0.95 1s0.317 1 0.95 1 0.95-0.333 0.95-1-0.317-1-0.95-1z"/>
					<path d="m53.6-57.15c0.667 0 1-0.333 1-1s-0.333-1-1-1c-0.633 0-0.95 0.333-0.95 1s0.317 1 0.95 1z"/>
					<path d="m58.45-59.85c0.633 0 0.95-0.333 0.95-1s-0.316-1-0.95-1c-0.3 0-0.55 0.1-0.75 0.3 0.066-0.733-0.25-1.1-0.95-1.1-0.633 0-0.95 0.333-0.95 1s0.317 1 0.95 1c0.267 0 0.517-0.117 0.75-0.35-0.067 0.3-0.017 0.567 0.15 0.8 0.167 0.234 0.433 0.35 0.8 0.35z"/>
					<path d="m61.95-58.35c0.633 0 0.95-0.333 0.95-1s-0.316-1-0.95-1-0.95 0.333-0.95 1 0.317 1 0.95 1z"/>
					<path d="m61.6-64.35c-0.633 0-0.95 0.333-0.95 1s0.317 1 0.95 1c0.667 0 1-0.333 1-1s-0.333-1-1-1z"/>
					<path d="m62.75-64.15c0.667 0 1-0.333 1-1s-0.333-1-1-1c-0.633 0-0.95 0.333-0.95 1s0.317 1 0.95 1z"/>
					<path d="m64.95-63c-0.633 0-0.95 0.333-0.95 1s0.317 1 0.95 1 0.95-0.333 0.95-1-0.317-1-0.95-1z"/>
					<path d="m65.25-66c-0.633 0-0.95 0.333-0.95 1s0.317 1 0.95 1c0.667 0 1-0.333 1-1s-0.333-1-1-1z"/>
					<path d="m67.1-67.85c-0.633 0-0.95 0.333-0.95 1s0.317 1 0.95 1c0.667 0 1-0.333 1-1s-0.333-1-1-1z"/>
					<path d="m69.05-63.4c0.2 0.367 0.5 0.55 0.9 0.55 0.6 0 0.917-0.3 0.95-0.9s-0.233-0.95-0.8-1.05l-0.05-0.15c0.3 0.1 0.6 0.083 0.9-0.05 0.333-0.167 0.5-0.45 0.5-0.85v-0.15c0-0.4-0.2-0.7-0.6-0.9 0.333-0.267 0.45-0.617 0.35-1.05-0.133-0.467-0.45-0.7-0.95-0.7-0.533 0-0.85 0.25-0.95 0.75-0.066 0.533 0.1 0.9 0.5 1.1-0.233 0.233-0.35 0.5-0.35 0.8v0.15c0 0.267 0.066 0.466 0.2 0.6l-0.4-0.1c-0.6 0-0.917 0.3-0.95 0.9s0.217 0.95 0.75 1.05z"/>
					<path d="m69.15-69c0.633-0.066 0.934-0.417 0.9-1.05 0-0.633-0.316-0.95-0.95-0.95-0.434 0-0.733 0.2-0.9 0.6-0.133 0.4-0.083 0.75 0.15 1.05-0.6 0.033-0.9 0.383-0.9 1.05 0.033 0.633 0.367 0.95 1 0.95 0.466 0 0.767-0.2 0.9-0.6s0.067-0.75-0.2-1.05z"/>
					<path d="m72.05-65.95c0.467 0.467 0.934 0.45 1.4-0.05 0.433-0.466 0.433-0.933 0-1.4l-0.1-0.1c-0.167-0.566-0.55-0.767-1.15-0.6-0.633 0.167-0.883 0.566-0.75 1.2 0.067 0.233 0.267 0.55 0.6 0.95z"/>
					<path d="m73.1-62.5c0.633-0.033 0.95-0.367 0.95-1 0-0.667-0.316-1-0.95-1-0.533 0-0.85 0.25-0.95 0.75-0.1 0.467 0.033 0.833 0.4 1.1-0.633 0-0.95 0.333-0.95 1 0.033 0.667 0.367 1 1 1 0.5 0 0.816-0.25 0.95-0.75 0.1-0.5-0.05-0.867-0.45-1.1z"/>
					<path d="m69.25-60.65c-0.633 0-0.95 0.333-0.95 1s0.317 1 0.95 1c0.667 0 1-0.333 1-1 0-0.666-0.333-1-1-1z"/>
					<path d="m71.25-58.85c-0.633 0-0.95 0.333-0.95 1s0.317 1 0.95 1c0.667 0 1-0.333 1-1s-0.333-1-1-1z"/>
					<path d="m72.6-57c-0.633 0-0.95 0.333-0.95 1s0.317 1 0.95 1c0.667 0 1-0.333 1-1s-0.333-1-1-1z"/>
					<path d="m71.1-51c0.5 0 0.816-0.25 0.95-0.75 0.1-0.466-0.05-0.833-0.45-1.1 0.4-0.233 0.55-0.583 0.45-1.05-0.133-0.5-0.45-0.75-0.95-0.75-0.533 0-0.85 0.25-0.95 0.75-0.1 0.467 0.033 0.817 0.4 1.05-0.267 0.2-0.4 0.45-0.4 0.75l-0.4-0.05c-0.633 0-0.95 0.333-0.95 1s0.317 1 0.95 1 0.95-0.316 0.95-0.95l0.4 0.1z"/>
					<path d="m66.75-55.35c-0.633 0-0.95 0.333-0.95 1s0.317 1 0.95 1c0.667 0 1-0.333 1-1s-0.333-1-1-1z"/>
					<path d="m67.95-46.15c0.633 0 0.95-0.333 0.95-1s-0.316-1-0.95-1l-0.3 0.05c0.1-0.333 0.083-0.65-0.05-0.95-0.167-0.3-0.45-0.45-0.85-0.45-0.633 0-0.95 0.333-0.95 1s0.317 1 0.95 1l0.3-0.05c-0.133 0.3-0.117 0.6 0.05 0.9 0.167 0.334 0.45 0.5 0.85 0.5z"/>
					<path d="m66.95-45c-0.633 0-0.95 0.333-0.95 1s0.317 1 0.95 1l0.35-0.1c0.167 0.167 0.383 0.25 0.65 0.25 0.633 0 0.95-0.333 0.95-1s-0.316-1-0.95-1l-0.4 0.1c-0.167-0.167-0.367-0.25-0.6-0.25z"/>
					<path d="m70.3-49c0 0.667 0.317 1 0.95 1 0.667 0 1-0.333 1-1s-0.333-1-1-1c-0.633 0-0.95 0.333-0.95 1z"/>
					<path d="m50.8-15.4c0.034 0.6 0.35 0.9 0.95 0.9 0.367 0 0.65-0.167 0.85-0.5 0.133-0.267 0.15-0.566 0.05-0.9 0.3-0.066 0.517-0.233 0.65-0.5 0.1-0.267 0.117-0.533 0.05-0.8 0.6-0.067 0.9-0.383 0.9-0.95v-0.2c0-0.667-0.333-1-1-1s-1 0.333-1 1v0.2l0.1 0.35c-0.367 0.033-0.617 0.2-0.75 0.5-0.167 0.267-0.184 0.55-0.05 0.85-0.533 0.134-0.783 0.484-0.75 1.05z"/>
					<path d="m50.15-19.55c-0.4 0.2-0.566 0.567-0.5 1.1 0.1 0.533 0.417 0.8 0.95 0.8 0.467 0 0.767-0.233 0.9-0.7s0.033-0.833-0.3-1.1c0.433-0.2 0.6-0.567 0.5-1.1s-0.417-0.8-0.95-0.8c-0.467 0-0.767 0.233-0.9 0.7-0.1 0.434 0 0.8 0.3 1.1z"/>
					<path d="m54-20.2c0.6-0.067 0.9-0.4 0.9-1 0-0.633-0.316-0.95-0.95-0.95-0.5 0-0.817 0.217-0.95 0.65-0.6 0.034-0.883 0.383-0.85 1.05 0 0.633 0.317 0.95 0.95 0.95 0.5 0 0.8-0.233 0.9-0.7z"/>
					<path d="m55.6-20.15c-0.633 0-0.95 0.333-0.95 1s0.317 1 0.95 1c0.667 0 1-0.333 1-1 0-0.666-0.333-1-1-1z"/>
					<path d="m54.6-17c-0.633 0-0.95 0.333-0.95 1s0.317 1 0.95 1c0.667 0 1-0.333 1-1s-0.333-1-1-1z"/>
					<path d="m56.75-16.65c-0.633 0-0.95 0.333-0.95 1s0.317 1 0.95 1c0.667 0 1-0.333 1-1 0-0.666-0.333-1-1-1z"/>
					<path d="m58.1-18.35c-0.633 0-0.95 0.333-0.95 1s0.317 1 0.95 1c0.467 0 0.75-0.2 0.85-0.6 0.233 0.3 0.5 0.45 0.8 0.45 0.667 0 1-0.333 1-1s-0.333-1-1-1c-0.467 0-0.75 0.2-0.85 0.6-0.233-0.3-0.5-0.45-0.8-0.45z"/>
					<path d="m57.95-19.5c0.633 0 0.95-0.333 0.95-1s-0.316-1-0.95-1-0.95 0.333-0.95 1 0.317 1 0.95 1z"/>
					<path d="m59.1-26.65c-0.633 0-0.95 0.333-0.95 1s0.317 1 0.95 1c0.667 0 1-0.333 1-1 0-0.666-0.333-1-1-1z"/>
					<path d="m58.75-27c0.667 0 1-0.333 1-1s-0.333-1-1-1c-0.633 0-0.95 0.333-0.95 1s0.317 1 0.95 1z"/>
					<path d="m55.95-22.35c0.4 0 0.683-0.184 0.85-0.55 0.167-0.333 0.15-0.65-0.05-0.95 0.567-0.1 0.833-0.467 0.8-1.1-0.033-0.6-0.35-0.9-0.95-0.9-0.434 0-0.717 0.183-0.85 0.55-0.167 0.333-0.15 0.667 0.05 1-0.566 0.067-0.833 0.417-0.8 1.05 0.033 0.6 0.35 0.9 0.95 0.9z"/>
					<path d="m50.95-23.15c0.633 0 0.95-0.333 0.95-1s-0.316-1-0.95-1-0.95 0.333-0.95 1 0.317 1 0.95 1z"/>
					<path d="m48.95-20.15c0.633 0 0.95-0.333 0.95-1s-0.316-1-0.95-1-0.95 0.333-0.95 1 0.317 1 0.95 1z"/>
					<path d="m43.25-19.5c-0.633 0-0.95 0.333-0.95 1s0.317 1 0.95 1c0.667 0 1-0.333 1-1s-0.333-1-1-1z"/>
					<path d="m44.6-17.85c-0.633 0-0.95 0.333-0.95 1s0.317 1 0.95 1c0.667 0 1-0.333 1-1s-0.333-1-1-1z"/>
					<path d="m45.95-16.35c-0.633 0-0.95 0.333-0.95 1s0.317 1 0.95 1 0.95-0.333 0.95-1-0.317-1-0.95-1z"/>
					<path d="m44.3-20.15c0 0.667 0.317 1 0.95 1 0.4 0 0.7-0.2 0.9-0.6 0.1 0.1 0.184 0.15 0.25 0.15 0.1 0.4 0.383 0.6 0.85 0.6 0.567 0 0.883-0.283 0.95-0.85 0.1-0.567-0.083-0.934-0.55-1.1-0.167-0.367-0.467-0.55-0.9-0.55s-0.717 0.184-0.85 0.55c-0.2-0.133-0.417-0.2-0.65-0.2-0.633 0-0.95 0.334-0.95 1z"/>
					<path d="m46.95-18.35c-0.633 0-0.95 0.333-0.95 1s0.317 1 0.95 1h0.3l0.25-0.05c0.133 0.5 0.45 0.75 0.95 0.75 0.633 0 0.95-0.367 0.95-1.1 0.333-0.267 0.434-0.617 0.3-1.05-0.133-0.467-0.45-0.7-0.95-0.7-0.367 0-0.633 0.15-0.8 0.45-0.2-0.2-0.434-0.3-0.7-0.3h-0.3z"/>
					<path d="m62.25-18c-0.533 0-0.85 0.25-0.95 0.75-0.066 0.534 0.1 0.9 0.5 1.1 0.167 0.333 0.434 0.5 0.8 0.5 0.533 0 0.85-0.267 0.95-0.8s-0.066-0.9-0.5-1.1c-0.167-0.3-0.433-0.45-0.8-0.45z"/>
					<path d="m61.95-20.5c0.633 0 0.95-0.333 0.95-1s-0.316-1-0.95-1h-0.1c-0.167-0.233-0.417-0.35-0.75-0.35s-0.583 0.117-0.75 0.35-0.233 0.483-0.2 0.75c-0.4 0.2-0.566 0.567-0.5 1.1 0.1 0.533 0.417 0.8 0.95 0.8s0.833-0.25 0.9-0.75l0.45 0.1z"/>
					<path d="m63.75-20.65c-0.633 0-0.95 0.333-0.95 1s0.317 1 0.95 1c0.667 0 1-0.333 1-1 0-0.666-0.333-1-1-1z"/>
					<path d="m74.25-25.5c-0.633 0-0.95 0.333-0.95 1s0.317 1 0.95 1c0.667 0 1-0.333 1-1s-0.333-1-1-1z"/>
					<path d="m71.25-22c-0.633 0-0.95 0.333-0.95 1s0.317 1 0.95 1c0.667 0 1-0.333 1-1s-0.333-1-1-1z"/>
					<path d="m67.25-21.65c-0.633 0-0.95 0.333-0.95 1s0.317 1 0.95 1c0.667 0 1-0.333 1-1 0-0.666-0.333-1-1-1z"/>
					<path d="m76.1-29.35c-0.633 0-0.95 0.333-0.95 1s0.317 1 0.95 1c0.667 0 1-0.333 1-1s-0.333-1-1-1z"/>
					<path d="m76.45-26.85c-0.633 0-0.95 0.333-0.95 1s0.317 1 0.95 1 0.95-0.333 0.95-1-0.317-1-0.95-1z"/>
					<path d="m78.45-28.5c-0.633 0-0.95 0.333-0.95 1s0.317 1 0.95 1 0.95-0.333 0.95-1-0.317-1-0.95-1z"/>
					<path d="m75.1-31c0.667 0 1-0.333 1-1s-0.333-1-1-1c-0.633 0-0.95 0.333-0.95 1s0.317 1 0.95 1z"/>
					<path d="m77.75-32.65c0.667 0 1-0.333 1-1s-0.333-1-1-1c-0.633 0-0.95 0.333-0.95 1s0.317 1 0.95 1z"/>
					<path d="m79.2-30.75c0.2 0.4 0.5 0.6 0.9 0.6 0.667 0 1-0.333 1-1s-0.333-1-1-1c-0.633 0-0.95 0.3-0.95 0.9-0.167-0.4-0.467-0.6-0.9-0.6-0.633 0-0.95 0.333-0.95 1s0.317 1 0.95 1 0.95-0.3 0.95-0.9z"/>
					<path d="m80.6-34.85c-0.633 0-0.95 0.333-0.95 1s0.317 1 0.95 1c0.667 0 1-0.333 1-1s-0.333-1-1-1z"/>
					<path d="m81.95-29.35c0.633 0 0.95-0.333 0.95-1s-0.316-1-0.95-1-0.95 0.333-0.95 1 0.317 1 0.95 1z"/>
					<path d="m81.1-26.85c0.667 0 1-0.333 1-1s-0.333-1-1-1c-0.633 0-0.95 0.333-0.95 1s0.317 1 0.95 1z"/>
					<path d="m84.45-27.85c0-0.667-0.333-1-1-1s-1 0.333-1 1v0.2c0 0.633 0.333 0.95 1 0.95s1-0.317 1-0.95v-0.2z"/>
					<path d="m76.95-56.65c0.633 0 0.95-0.333 0.95-1s-0.316-1-0.95-1-0.95 0.333-0.95 1 0.317 1 0.95 1z"/>
					<path d="m74.75-55.85c0.667 0 1-0.333 1-1s-0.333-1-1-1c-0.633 0-0.95 0.333-0.95 1s0.317 1 0.95 1z"/>
					<path d="m77.45-59c0.633 0 0.95-0.333 0.95-1s-0.316-1-0.95-1-0.95 0.333-0.95 1 0.317 1 0.95 1z"/>
					<path d="m79.75-59.15c-0.633 0-0.95 0.333-0.95 1s0.317 1 0.95 1c0.667 0 1-0.333 1-1 0-0.666-0.333-1-1-1z"/>
					<path d="m78.45-53.85c0.633 0 0.95-0.333 0.95-1s-0.316-1-0.95-1c-0.434 0-0.733 0.183-0.9 0.55-0.167 0.333-0.15 0.667 0.05 1l-0.15-0.05c-0.633 0-0.95 0.333-0.95 1s0.317 1 0.95 1c0.4 0 0.683-0.184 0.85-0.55 0.167-0.333 0.15-0.667-0.05-1l0.2 0.05z"/>
					<path d="m81.6-50.5c0.667 0 1-0.333 1-1s-0.333-1-1-1c-0.633 0-0.95 0.333-0.95 1s0.317 1 0.95 1z"/>
					<path d="m82.25-56.15c-0.633 0-0.95 0.333-0.95 1s0.317 1 0.95 1c0.667 0 1-0.333 1-1 0-0.666-0.333-1-1-1z"/>
					<path d="m82.45-56.35c0.533 0 0.85-0.267 0.95-0.8 0.067-0.566-0.117-0.933-0.55-1.1 0.433-0.2 0.617-0.566 0.55-1.1-0.1-0.534-0.417-0.8-0.95-0.8-0.567 0-0.883 0.267-0.95 0.8-0.1 0.533 0.067 0.9 0.5 1.1-0.433 0.167-0.6 0.534-0.5 1.1 0.067 0.533 0.383 0.8 0.95 0.8z"/>
					<path d="m88.95-54.65c0.633 0 0.95-0.333 0.95-1s-0.316-1-0.95-1c-0.267 0-0.517 0.083-0.75 0.25 0-0.633-0.317-0.95-0.95-0.95-0.233 0-0.433 0.083-0.6 0.25-0.5 0.133-0.717 0.483-0.65 1.05 0.033 0.6 0.35 0.9 0.95 0.9 0.233 0 0.433-0.083 0.6-0.25 0.2-0.066 0.333-0.15 0.4-0.25 0.067 0.667 0.4 1 1 1z"/>
					<path d="m85.6-59.35c-0.633 0-0.95 0.333-0.95 1s0.317 1 0.95 1c0.667 0 1-0.333 1-1s-0.333-1-1-1z"/>
					<path d="m79.6-61.65c0.667 0 1-0.333 1-1s-0.333-1-1-1c-0.633 0-0.95 0.333-0.95 1s0.317 1 0.95 1z"/>
					<path d="m81.95-65.15c-0.633 0-0.95 0.333-0.95 1s0.317 1 0.95 1 0.95-0.333 0.95-1c0-0.666-0.317-1-0.95-1z"/>
					<path d="m84.45-61c0.367 0 0.633-0.167 0.8-0.5 0.167-0.267 0.183-0.566 0.05-0.9 0.233 0.167 0.45 0.25 0.65 0.25 0.633 0 0.95-0.333 0.95-1s-0.316-1-0.95-1c-0.4 0-0.684 0.15-0.85 0.45-0.167 0.267-0.184 0.566-0.05 0.9-0.2-0.133-0.4-0.2-0.6-0.2-0.633 0-0.95 0.333-0.95 1s0.317 1 0.95 1z"/>
					<path d="m87.95-64.5c0.633 0 0.95-0.333 0.95-1s-0.316-1-0.95-1-0.95 0.333-0.95 1 0.317 1 0.95 1z"/>
					<path d="m90.25-60.85c0.667 0 1-0.333 1-1s-0.333-1-1-1c-0.633 0-0.95 0.333-0.95 1s0.317 1 0.95 1z"/>
					<path d="m84.6-65.5c0.367 0 0.633-0.133 0.8-0.4 0.133-0.233 0.167-0.517 0.1-0.85 0.233-0.3 0.283-0.633 0.15-1-0.133-0.4-0.433-0.6-0.9-0.6-0.367 0-0.633 0.133-0.8 0.4-0.133 0.233-0.167 0.5-0.1 0.8-0.233 0.333-0.283 0.684-0.15 1.05 0.133 0.4 0.433 0.6 0.9 0.6z"/>
					<path d="m82.25-67.5c0.667 0 1-0.333 1-1s-0.333-1-1-1c-0.633 0-0.95 0.333-0.95 1s0.317 1 0.95 1z"/>
					<path d="m80.95-67.15c-0.633 0-0.95 0.333-0.95 1s0.317 1 0.95 1 0.95-0.333 0.95-1c0-0.666-0.317-1-0.95-1z"/>
					<path d="m95.1-60.85l0.1-0.2 0.05-0.45c0.033-0.267-0.05-0.5-0.25-0.7-0.233-0.2-0.483-0.3-0.75-0.3-0.433 0-0.733 0.2-0.9 0.6l-0.4-0.1c-0.633 0-0.95 0.333-0.95 1s0.317 1 0.95 1c0.167 0 0.316-0.05 0.45-0.15 0.2 0.2 0.434 0.3 0.7 0.3 0.533 0 0.867-0.333 1-1z"/>
					<path d="m97.6-66c0.667 0 1-0.333 1-1s-0.333-1-1-1c-0.633 0-0.95 0.333-0.95 1s0.317 1 0.95 1z"/>
					<path d="m100.1-58.65c0.667 0 1-0.333 1-1s-0.333-1-1-1c-0.633 0-0.95 0.333-0.95 1s0.317 1 0.95 1z"/>
					<path d="m101.1-56.15c-0.633 0-0.95 0.333-0.95 1s0.317 1 0.95 1c0.667 0 1-0.333 1-1 0-0.666-0.33-1-1-1z"/>
					<path d="m103.25-52.85c0.667 0 1-0.333 1-1s-0.333-1-1-1c-0.633 0-0.95 0.333-0.95 1s0.32 1 0.95 1z"/>
					<path d="m105.45-59.15c-0.633 0-0.95 0.333-0.95 1s0.317 1 0.95 1 0.95-0.333 0.95-1c0-0.666-0.32-1-0.95-1z"/>
					<path d="m109.1-54.15c0.667 0 1-0.333 1-1s-0.333-1-1-1c-0.633 0-0.95 0.333-0.95 1s0.32 1 0.95 1z"/>
					<path d="m112.1-53.5c-0.633 0-0.95 0.333-0.95 1s0.317 1 0.95 1c0.667 0 1-0.333 1-1s-0.33-1-1-1z"/>
					<path d="m111.6-47.65c-0.633 0-0.95 0.333-0.95 1s0.317 1 0.95 1c0.667 0 1-0.333 1-1 0-0.666-0.33-1-1-1z"/>
					<path d="m106.8-48.65c0 0.667 0.317 1 0.95 1 0.667 0 1-0.333 1-1s-0.333-1-1-1c-0.63 0-0.95 0.334-0.95 1z"/>
					<path d="m108.45-52.65c-0.633 0-0.95 0.333-0.95 1s0.317 1 0.95 1 0.95-0.333 0.95-1c0-0.666-0.32-1-0.95-1z"/>
					<path d="m101.6-50.65c-0.633 0-0.95 0.333-0.95 1s0.317 1 0.95 1c0.667 0 1-0.333 1-1 0-0.666-0.33-1-1-1z"/>
					<path d="m108.95-45.15c-0.633 0-0.95 0.333-0.95 1s0.317 1 0.95 1 0.95-0.333 0.95-1c0-0.666-0.32-1-0.95-1z"/>
					<path d="m100.6-62.65c-0.633 0-0.95 0.333-0.95 1s0.317 1 0.95 1c0.667 0 1-0.333 1-1 0-0.666-0.33-1-1-1z"/>
					<path d="m102.1-63.85c0.667 0 1-0.333 1-1s-0.333-1-1-1c-0.633 0-0.95 0.333-0.95 1s0.32 1 0.95 1z"/>
					<path d="m104.75-61.35c0.667 0 1-0.333 1-1s-0.333-1-1-1c-0.633 0-0.95 0.333-0.95 1s0.32 1 0.95 1z"/>
					<path d="m107.85-62.25c0.5-0.133 0.733-0.483 0.7-1.05s-0.35-0.85-0.95-0.85c-0.367 0-0.633 0.133-0.8 0.4-0.167 0.233-0.216 0.5-0.15 0.8-0.5 0.133-0.717 0.483-0.65 1.05 0.033 0.6 0.35 0.9 0.95 0.9 0.333 0 0.583-0.133 0.75-0.4 0.17-0.233 0.22-0.517 0.15-0.85z"/>
					<path d="m113.1-56.65c0.667 0 1-0.333 1-1s-0.333-1-1-1c-0.467 0-0.767 0.217-0.9 0.65-0.2-0.433-0.517-0.65-0.95-0.65-0.633 0-0.95 0.333-0.95 1s0.317 1 0.95 1c0.433 0 0.75-0.233 0.95-0.7 0.13 0.467 0.43 0.7 0.9 0.7z"/>
					<path d="m110.95-61.15c0.633 0 0.95-0.333 0.95-1s-0.316-1-0.95-1-0.95 0.333-0.95 1 0.32 1 0.95 1z"/>
					<path d="m97.45-64.5c-0.633 0-0.95 0.333-0.95 1s0.317 1 0.95 1 0.95-0.333 0.95-1-0.317-1-0.95-1z"/>
					<path d="m91.3-64.15c0.1 0.533 0.417 0.8 0.95 0.8 0.567 0 0.883-0.284 0.95-0.85l0.05 0.05c0.6 0 0.917-0.3 0.95-0.9 0.066-0.567-0.167-0.917-0.7-1.05-0.133-0.5-0.433-0.75-0.9-0.75-0.434 0-0.733 0.183-0.9 0.55-0.133 0.367-0.1 0.717 0.1 1.05-0.4 0.2-0.567 0.567-0.5 1.1z"/>
					<path d="m92.95-67c0.633 0 0.95-0.333 0.95-1s-0.316-1-0.95-1-0.95 0.333-0.95 1 0.317 1 0.95 1z"/>
					<path d="m90.05-68.1c0.434-0.233 0.6-0.6 0.5-1.1-0.1-0.533-0.417-0.8-0.95-0.8-0.633 0-0.95 0.317-0.95 0.95-0.4 0.2-0.566 0.567-0.5 1.1 0.1 0.533 0.417 0.8 0.95 0.8 0.3 0 0.533-0.1 0.7-0.3s0.25-0.417 0.25-0.65z"/>
					<path d="m100.6-65.5c0.667 0 1-0.333 1-1s-0.333-1-1-1c-0.633 0-0.95 0.333-0.95 1s0.317 1 0.95 1z"/>
					<path d="m92.1-58.35c-0.633 0-0.95 0.333-0.95 1s0.317 1 0.95 1c0.667 0 1-0.333 1-1s-0.333-1-1-1z"/>
					<path d="m90.75-54.5c-0.6 0-0.917 0.3-0.95 0.9-0.033 0.633 0.233 0.983 0.8 1.05-0.167 0.333-0.167 0.667 0 1 0.133 0.367 0.417 0.55 0.85 0.55 0.6 0 0.917-0.316 0.95-0.95 0-0.6-0.283-0.95-0.85-1.05 0.2-0.3 0.217-0.617 0.05-0.95-0.133-0.366-0.417-0.55-0.85-0.55z"/>
					<path d="m88.6-50.15c0.667 0 1-0.333 1-1s-0.333-1-1-1c-0.633 0-0.95 0.333-0.95 1s0.317 1 0.95 1z"/>
					<path d="m85.6-54.15c-0.633 0-0.95 0.333-0.95 1s0.317 1 0.95 1c0.667 0 1-0.333 1-1 0-0.666-0.333-1-1-1z"/>
					<path d="m85.4-50c0-0.667-0.316-1-0.95-1s-0.95 0.333-0.95 1 0.317 1 0.95 1 0.95-0.333 0.95-1z"/>
					<path d="m83.8-45.75c-0.2 0.333-0.216 0.667-0.05 1 0.133 0.4 0.417 0.6 0.85 0.6 0.667 0 1-0.333 1-1s-0.333-1-1-1l-0.4 0.05c0.2-0.333 0.233-0.667 0.1-1-0.133-0.367-0.417-0.55-0.85-0.55-0.633 0-0.95 0.333-0.95 1s0.317 1 0.95 1l0.35-0.1z"/>
					<path d="m79.95-46.5c-0.633 0-0.95 0.333-0.95 1s0.317 1 0.95 1 0.95-0.333 0.95-1-0.317-1-0.95-1z"/>
					<path d="m77.25-52.15c-0.633 0-0.95 0.333-0.95 1s0.317 1 0.95 1c0.667 0 1-0.333 1-1 0-0.666-0.333-1-1-1z"/>
					<path d="m87.1-48.65c-0.633 0-0.95 0.333-0.95 1s0.317 1 0.95 1c0.667 0 1-0.333 1-1 0-0.666-0.333-1-1-1z"/>
					<path d="m84.1-37.85c-0.633 0-0.95 0.333-0.95 1s0.317 1 0.95 1c0.667 0 1-0.333 1-1s-0.333-1-1-1z"/>
					<path d="m65.25-25.85c-0.633 0-0.95 0.333-0.95 1s0.317 1 0.95 1c0.667 0 1-0.333 1-1s-0.333-1-1-1z"/>
					<path d="m62.25-27c0.667 0 1-0.333 1-1s-0.333-1-1-1c-0.633 0-0.95 0.333-0.95 1s0.317 1 0.95 1z"/>
					<path d="m64.45-30.85c0.466 0 0.767-0.233 0.9-0.7 0.133-0.433 0.033-0.783-0.3-1.05 0.434-0.2 0.6-0.567 0.5-1.1s-0.417-0.8-0.95-0.8c-0.5 0-0.817 0.233-0.95 0.7-0.1 0.433 0.017 0.783 0.35 1.05-0.433 0.2-0.6 0.567-0.5 1.1 0.067 0.533 0.383 0.8 0.95 0.8z"/>
					<path d="m66.45-26c0.633 0 0.95-0.333 0.95-1s-0.316-1-0.95-1-0.95 0.333-0.95 1 0.317 1 0.95 1z"/>
					<path d="m67.6-27.65c0.667 0 1-0.333 1-1s-0.333-1-1-1c-0.633 0-0.95 0.333-0.95 1s0.317 1 0.95 1z"/>
					<path d="m63.6-28.85c0.667 0 1-0.333 1-1s-0.333-1-1-1c-0.633 0-0.95 0.333-0.95 1s0.317 1 0.95 1z"/>
					<path d="m61.1-33.5c-0.633 0-0.95 0.333-0.95 1s0.317 1 0.95 1c0.667 0 1-0.333 1-1s-0.333-1-1-1z"/>
					<path d="m61.95-34.85c0.633 0 0.95-0.333 0.95-1s-0.316-1-0.95-1-0.95 0.333-0.95 1 0.317 1 0.95 1z"/>
					<path d="m66.75-31c0.667 0 1-0.333 1-1s-0.333-1-1-1c-0.633 0-0.95 0.333-0.95 1s0.317 1 0.95 1z"/>
					<path d="m67.95-34c0.633 0 0.95-0.333 0.95-1s-0.316-1-0.95-1-0.95 0.333-0.95 1 0.317 1 0.95 1z"/>
					<path d="m65.1-38c-0.633 0-0.95 0.333-0.95 1s0.317 1 0.95 1c0.667 0 1-0.333 1-1s-0.333-1-1-1z"/>
					<path d="m67.45-36.15c0.633 0 0.95-0.333 0.95-1s-0.316-1-0.95-1-0.95 0.333-0.95 1 0.317 1 0.95 1z"/>
					<path d="m62.75-38.15c0.667 0 1-0.333 1-1s-0.333-1-1-1c-0.633 0-0.95 0.333-0.95 1s0.317 1 0.95 1z"/>
					<path d="m64.95-39.5c0.566 0 0.883-0.283 0.95-0.85 0.033-0.567-0.2-0.934-0.7-1.1 0.2-0.333 0.233-0.667 0.1-1-0.133-0.366-0.417-0.55-0.85-0.55-0.6 0-0.917 0.284-0.95 0.85-0.067 0.567 0.15 0.934 0.65 1.1-0.2 0.3-0.233 0.633-0.1 1 0.167 0.367 0.467 0.55 0.9 0.55z"/>
					<path d="m66.75-38.65c0.667 0 1-0.333 1-1s-0.333-1-1-1c-0.633 0-0.95 0.333-0.95 1s0.317 1 0.95 1z"/>
					<path d="m68.45-41.85c-0.633 0-0.95 0.333-0.95 1s0.317 1 0.95 1 0.95-0.333 0.95-1-0.317-1-0.95-1z"/>
					<path d="m89.1-34.85c-0.633 0-0.95 0.333-0.95 1s0.317 1 0.95 1c0.667 0 1-0.333 1-1s-0.333-1-1-1z"/>
					<path d="m89.75-32.85c-0.633 0-0.95 0.333-0.95 1s0.317 1 0.95 1c0.667 0 1-0.333 1-1s-0.333-1-1-1z"/>
					<path d="m92.25-32.15c-0.633 0-0.95 0.333-0.95 1s0.317 1 0.95 1c0.667 0 1-0.333 1-1 0-0.666-0.333-1-1-1z"/>
					<path d="m90.25-35.35c0.667 0 1-0.333 1-1s-0.333-1-1-1c-0.633 0-0.95 0.333-0.95 1s0.317 1 0.95 1z"/>
					<path d="m85.95-32.65c-0.633 0-0.95 0.333-0.95 1s0.317 1 0.95 1 0.95-0.333 0.95-1c0-0.666-0.317-1-0.95-1z"/>
					<path d="m89.6-37.85c0-0.633-0.333-0.967-1-1 0.1-0.167 0.15-0.333 0.15-0.5v-0.15c0-0.667-0.333-1-1-1s-1 0.333-1 1v0.15c0 0.3 0.1 0.55 0.3 0.75 0.2 0.167 0.45 0.233 0.75 0.2-0.2 0.333-0.216 0.667-0.05 1 0.133 0.367 0.417 0.55 0.85 0.55 0.667 0 1-0.333 1-1z"/>
					<path d="m89.1-45.5c-0.633 0-0.95 0.333-0.95 1s0.317 1 0.95 1c0.667 0 1-0.333 1-1s-0.333-1-1-1z"/>
					<path d="m90.45-43.85c-0.3 0-0.55 0.1-0.75 0.3s-0.284 0.433-0.25 0.7c0.066 0.633 0.367 1.017 0.9 1.15s0.917-0.067 1.15-0.6c0.2-0.533 0.083-0.933-0.35-1.2-0.167-0.233-0.4-0.35-0.7-0.35z"/>
					<path d="m93.95-35.35c0.633 0 0.95-0.333 0.95-1s-0.316-1-0.95-1-0.95 0.333-0.95 1 0.317 1 0.95 1z"/>
					<path d="m84.45-33c0.633 0 0.95-0.333 0.95-1s-0.316-1-0.95-1c-0.5 0-0.8 0.2-0.9 0.6l-0.45-0.1c-0.633 0-0.95 0.333-0.95 1s0.317 1 0.95 1c0.433 0 0.733-0.2 0.9-0.6l0.45 0.1z"/>
					<path d="m92.95-35.5c-0.633 0-0.95 0.333-0.95 1s0.317 1 0.95 1 0.95-0.333 0.95-1-0.317-1-0.95-1z"/>
					<path d="m90.1-30.65c-0.633 0-0.95 0.333-0.95 1s0.317 1 0.95 1c0.667 0 1-0.333 1-1 0-0.666-0.333-1-1-1z"/>
					<path d="m88.45-41c0.633 0 0.95-0.333 0.95-1s-0.316-1-0.95-1-0.95 0.333-0.95 1 0.317 1 0.95 1z"/>
					<path d="m90.6-48.65l0.35-0.1-0.2 0.25c-0.1-0.1-0.267-0.15-0.5-0.15-0.633 0-0.95 0.333-0.95 1s0.317 1 0.95 1c0.367 0 0.65-0.167 0.85-0.5 0.1 0.1 0.267 0.15 0.5 0.15 0.667 0 1-0.333 1-1s-0.333-1-1-1l-0.35 0.05c0.3-0.3 0.383-0.65 0.25-1.05-0.133-0.433-0.433-0.65-0.9-0.65-0.633 0-0.95 0.333-0.95 1s0.317 1 0.95 1z"/>
					<path d="m92.6-54.35c0.667 0 1-0.333 1-1s-0.333-1-1-1c-0.633 0-0.95 0.333-0.95 1s0.317 1 0.95 1z"/>
					<path d="m92.45-44.85c0.633 0 0.95-0.333 0.95-1s-0.316-1-0.95-1-0.95 0.333-0.95 1 0.317 1 0.95 1z"/>
					<path d="m90.75-40.85c-0.633 0-0.95 0.333-0.95 1s0.317 1 0.95 1c0.4 0 0.683-0.167 0.85-0.5l0.3-0.05c0.2 0.367 0.483 0.55 0.85 0.55 0.667 0 1-0.333 1-1s-0.333-1-1-1l-0.3 0.05c-0.167-0.367-0.45-0.55-0.85-0.55-0.367 0-0.65 0.167-0.85 0.5z"/>
					<path d="m94.1-33.15c-0.633 0-0.95 0.333-0.95 1s0.317 1 0.95 1c0.667 0 1-0.333 1-1 0-0.666-0.333-1-1-1z"/>
					<path d="m67.75-25.15c-0.633 0-0.95 0.333-0.95 1s0.317 1 0.95 1c0.667 0 1-0.333 1-1 0-0.666-0.333-1-1-1z"/>
					<path d="m70.25-43.5c-0.633 0-0.95 0.333-0.95 1s0.317 1 0.95 1c0.667 0 1-0.333 1-1s-0.333-1-1-1z"/>
				</g>
				<g clip-rule="evenodd" fill="#C1DAE8" fill-rule="evenodd">
					<path d="m117.8-33.95l-0.35 1.5c-0.167 0.633 0.066 1.033 0.7 1.2 0.667 0.2 1.083-0.017 1.25-0.65l0.3-1.5c0.2-0.633-0.017-1.033-0.65-1.2-0.67-0.167-1.08 0.05-1.25 0.65z"/>
					<path d="m121.6-31.35l0.1-0.2 0.05-0.45c0.033-0.267-0.05-0.5-0.25-0.7-0.233-0.2-0.483-0.3-0.75-0.3-0.533 0-0.867 0.333-1 1l-0.1 0.2-0.05 0.45c-0.033 0.267 0.066 0.5 0.3 0.7 0.2 0.2 0.434 0.3 0.7 0.3 0.53 0 0.87-0.333 1-1z"/>
					<path d="m122.95-35.15c0-0.667-0.333-1-1-1s-1 0.333-1 1v0.15c0 0.633 0.333 0.95 1 0.95s1-0.317 1-0.95v-0.15z"/>
					<path d="m123.75-32.65c-0.633 0-0.95 0.333-0.95 1s0.317 1 0.95 1c0.667 0 1-0.333 1-1 0-0.666-0.33-1-1-1z"/>
					<path d="m125.95-28.85c-0.633 0-0.95 0.333-0.95 1s0.317 1 0.95 1 0.95-0.333 0.95-1-0.32-1-0.95-1z"/>
					<path d="m127.75-31.15c-0.633 0-0.95 0.333-0.95 1s0.317 1 0.95 1c0.667 0 1-0.333 1-1 0-0.666-0.33-1-1-1z"/>
					<path d="m126.95-32.5c0.633 0 0.95-0.333 0.95-1s-0.316-1-0.95-1-0.95 0.333-0.95 1 0.32 1 0.95 1z"/>
					<path d="m122.6-29.65c-0.633 0-0.95 0.333-0.95 1s0.317 1 0.95 1c0.667 0 1-0.333 1-1 0-0.666-0.33-1-1-1z"/>
					<path d="m128.95-29.5c-0.633 0-0.95 0.333-0.95 1s0.317 1 0.95 1 0.95-0.333 0.95-1-0.32-1-0.95-1z"/>
					<path d="m129.75-27c-0.633 0-0.95 0.333-0.95 1s0.317 1 0.95 1c0.667 0 1-0.333 1-1s-0.33-1-1-1z"/>
					<path d="m132.95-27.15c-0.633 0-0.95 0.333-0.95 1s0.317 1 0.95 1 0.95-0.333 0.95-1c0-0.666-0.32-1-0.95-1z"/>
					<path d="m132.6-30.85c-0.633 0-0.95 0.333-0.95 1s0.317 1 0.95 1c0.667 0 1-0.333 1-1s-0.33-1-1-1z"/>
					<path d="m136.45-26.65c-0.633 0-0.95 0.333-0.95 1s0.317 1 0.95 1 0.95-0.333 0.95-1c0-0.666-0.32-1-0.95-1z"/>
					<path d="m136.1-28.35c0.667 0 1-0.333 1-1s-0.333-1-1-1c-0.633 0-0.95 0.333-0.95 1s0.32 1 0.95 1z"/>
					<path d="m134.45-28.65c-0.633 0-0.95 0.333-0.95 1s0.317 1 0.95 1 0.95-0.333 0.95-1c0-0.666-0.32-1-0.95-1z"/>
					<path d="m140.6-23.15c0.467 0 0.767-0.233 0.9-0.7s0.033-0.833-0.3-1.1c0.433-0.2 0.6-0.567 0.5-1.1s-0.417-0.8-0.95-0.8c-0.267 0-0.5 0.1-0.7 0.3 0-0.5-0.233-0.8-0.7-0.9 0.066-0.3 0.017-0.567-0.15-0.8-0.167-0.267-0.417-0.4-0.75-0.4-0.6 0-0.917 0.283-0.95 0.85-0.067 0.567 0.15 0.917 0.65 1.05-0.066 0.333-0.017 0.617 0.15 0.85 0.167 0.267 0.434 0.4 0.8 0.4 0.267 0 0.5-0.1 0.7-0.3 0 0.267 0.117 0.517 0.35 0.75-0.4 0.2-0.566 0.567-0.5 1.1 0.1 0.533 0.42 0.8 0.95 0.8z"/>
					<path d="m142.8-26.85c0.067 0.367 0.233 0.617 0.5 0.75-0.5 0.133-0.716 0.483-0.65 1.05 0.067 0.6 0.383 0.9 0.95 0.9 0.533 0 0.85-0.267 0.95-0.8s-0.066-0.9-0.5-1.1c0.5-0.167 0.717-0.517 0.65-1.05-0.034-0.567-0.333-0.867-0.9-0.9 0.267-0.3 0.333-0.65 0.2-1.05s-0.433-0.6-0.9-0.6c-0.633 0-0.95 0.317-0.95 0.95-0.033 0.633 0.267 0.967 0.9 1-0.2 0.234-0.28 0.517-0.25 0.85z"/>
					<path d="m146.75-25.15c-0.633 0-0.95 0.333-0.95 1s0.317 1 0.95 1c0.533 0 0.85-0.25 0.95-0.75s-0.034-0.867-0.4-1.1c0.633-0.033 0.95-0.367 0.95-1-0.033-0.667-0.367-1-1-1-0.5 0-0.8 0.25-0.9 0.75-0.13 0.467 0 0.833 0.4 1.1z"/>
					<path d="m152.75-25c-0.633 0-0.95 0.333-0.95 1s0.317 1 0.95 1c0.667 0 1-0.333 1-1s-0.33-1-1-1z"/>
					<path d="m152.95-26.5c0.633 0 0.95-0.333 0.95-1s-0.316-1-0.95-1-0.95 0.333-0.95 1 0.32 1 0.95 1z"/>
					<path d="m150.1-31.15c-0.633 0-0.95 0.333-0.95 1s0.317 1 0.95 1c0.667 0 1-0.333 1-1 0-0.666-0.33-1-1-1z"/>
					<path d="m150.6-27c-0.633 0-0.95 0.333-0.95 1s0.317 1 0.95 1c0.667 0 1-0.333 1-1s-0.33-1-1-1z"/>
					<path d="m148.1-30.65c-0.633 0-0.95 0.333-0.95 1s0.317 1 0.95 1c0.667 0 1-0.333 1-1 0-0.666-0.33-1-1-1z"/>
					<path d="m131.95-32.35c0.633 0 0.95-0.333 0.95-1s-0.316-1-0.95-1-0.95 0.333-0.95 1 0.32 1 0.95 1z"/>
					<path d="m130.75-31.85c-0.633 0-0.95 0.333-0.95 1s0.317 1 0.95 1c0.667 0 1-0.333 1-1s-0.33-1-1-1z"/>
					<path d="m129.1-33c-0.633 0-0.95 0.333-0.95 1s0.317 1 0.95 1c0.667 0 1-0.333 1-1s-0.33-1-1-1z"/>
					<path d="m128.95-35.35c-0.633 0-0.95 0.333-0.95 1s0.317 1 0.95 1 0.95-0.333 0.95-1-0.32-1-0.95-1z"/>
					<path d="m124.45-34.85c0.633 0 0.95-0.333 0.95-1s-0.316-1-0.95-1-0.95 0.333-0.95 1 0.32 1 0.95 1z"/>
					<path d="m117.75-37.5c-0.633 0-0.95 0.333-0.95 1s0.317 1 0.95 1c0.667 0 1-0.333 1-1s-0.33-1-1-1z"/>
					<path d="m116.75-36.15c0-0.667-0.333-1-1-1s-1 0.333-1 1v0.15c0 0.633 0.333 0.95 1 0.95s1-0.317 1-0.95v-0.15z"/>
					<path d="m117.1-38.85c0.5 0 0.816-0.267 0.95-0.8 0.167 0.2 0.4 0.3 0.7 0.3 0.667 0 1-0.333 1-1s-0.333-1-1-1c-0.5 0-0.817 0.283-0.95 0.85-0.066-0.133-0.25-0.233-0.55-0.3 0.4-0.233 0.55-0.6 0.45-1.1s-0.417-0.75-0.95-0.75c-0.233 0-0.467 0.083-0.7 0.25l-0.45-0.1c-0.633 0-0.95 0.333-0.95 1s0.317 1 0.95 1c0.267 0 0.5-0.1 0.7-0.3l0.3 0.1c-0.4 0.233-0.55 0.6-0.45 1.1s0.42 0.75 0.95 0.75z"/>
					<path d="m121.55-41.75c0.467-0.133 0.7-0.433 0.7-0.9v-0.2c0-0.4-0.167-0.684-0.5-0.85-0.3-0.133-0.617-0.133-0.95 0-0.133-0.2-0.367-0.3-0.7-0.3-0.633 0-0.95 0.333-0.95 1s0.317 1 0.95 1l0.35-0.1c0.27 0.333 0.63 0.45 1.1 0.35z"/>
					<path d="m126.6-37.5c0.467 0 0.767-0.233 0.9-0.7 0.133-0.434 0.033-0.783-0.3-1.05 0.133-0.267 0.2-0.45 0.2-0.55 0.2 0.2 0.434 0.3 0.7 0.3 0.667 0 1-0.333 1-1s-0.333-1-1-1c-0.633 0-0.95 0.317-0.95 0.95-0.267-0.2-0.5-0.3-0.7-0.3-0.367 0-0.633 0.133-0.8 0.4l-0.2-0.05c-0.633 0-0.95 0.333-0.95 1s0.317 1 0.95 1l0.2-0.05c-0.033 0.267 0.033 0.5 0.2 0.7 0.2 0.233 0.45 0.35 0.75 0.35z"/>
					<path d="m126.25-41c0.667 0 1-0.333 1-1s-0.333-1-1-1c-0.633 0-0.95 0.333-0.95 1s0.32 1 0.95 1z"/>
					<path d="m121.85-37.3c0.1-0.367 0.033-0.717-0.2-1.05h0.05c0.133 0.466 0.433 0.7 0.9 0.7 0.667 0 1-0.333 1-1s-0.333-1-1-1c-0.467 0-0.767 0.217-0.9 0.65-0.2-0.433-0.517-0.65-0.95-0.65-0.467 0-0.767 0.2-0.9 0.6-0.133 0.367-0.083 0.717 0.15 1.05-0.067 0.2-0.067 0.434 0 0.7l-0.05-0.05c-0.633 0-0.95 0.333-0.95 1s0.317 1 0.95 1c0.367 0 0.65-0.15 0.85-0.45 0.133-0.267 0.15-0.567 0.05-0.9l0.1 0.05c0.47 0 0.77-0.217 0.9-0.65z"/>
					<path d="m123.25-40c0.667 0 1-0.333 1-1s-0.333-1-1-1c-0.633 0-0.95 0.333-0.95 1s0.32 1 0.95 1z"/>
					<path d="m129-36.2c0.533 0.133 0.917-0.067 1.15-0.6 0.2-0.533 0.1-0.933-0.3-1.2-0.233-0.233-0.483-0.35-0.75-0.35s-0.5 0.1-0.7 0.3c-0.233 0.2-0.333 0.433-0.3 0.7 0.07 0.634 0.37 1.017 0.9 1.15z"/>
					<path d="m131.1-36.5c-0.633 0-0.95 0.333-0.95 1s0.317 1 0.95 1c0.667 0 1-0.333 1-1s-0.33-1-1-1z"/>
					<path d="m130.45-42.15c-0.633 0-0.95 0.333-0.95 1s0.317 1 0.95 1 0.95-0.333 0.95-1c0-0.666-0.32-1-0.95-1z"/>
					<path d="m131.25-39.35c-0.633 0-0.95 0.333-0.95 1s0.317 1 0.95 1c0.533 0 0.85-0.233 0.95-0.7 0.3 0.2 0.633 0.217 1 0.05 0.367-0.133 0.55-0.417 0.55-0.85v-0.15c0-0.633-0.3-0.966-0.9-1-0.633-0.033-0.983 0.25-1.05 0.85-0.2-0.133-0.38-0.2-0.55-0.2z"/>
					<path d="m134.25-36c-0.633 0-0.95 0.333-0.95 1s0.317 1 0.95 1c0.667 0 1-0.333 1-1s-0.33-1-1-1z"/>
					<path d="m135.6-33.35c-0.633 0-0.95 0.333-0.95 1s0.317 1 0.95 1c0.667 0 1-0.333 1-1s-0.33-1-1-1z"/>
					<path d="m137.25-34.65c0.667 0 1-0.333 1-1s-0.333-1-1-1c-0.633 0-0.95 0.333-0.95 1s0.32 1 0.95 1z"/>
					<path d="m137.45-38.35c0.633 0 0.95-0.333 0.95-1s-0.316-1-0.95-1-0.95 0.333-0.95 1 0.32 1 0.95 1z"/>
					<path d="m142.95-35.65c-0.633 0-0.95 0.333-0.95 1s0.317 1 0.95 1 0.95-0.333 0.95-1c0-0.666-0.32-1-0.95-1z"/>
					<path d="m141.25-37.5c0-0.667-0.333-1-1-1s-1 0.333-1 1v0.15c0 0.633 0.333 0.95 1 0.95s1-0.316 1-0.95v-0.15z"/>
					<path d="m141.95-42.15c-0.633 0-0.95 0.333-0.95 1s0.317 1 0.95 1c0.433 0 0.716-0.2 0.85-0.6 0.167 0.267 0.434 0.4 0.8 0.4 0.667 0 1-0.333 1-1s-0.333-1-1-1c-0.434 0-0.733 0.2-0.9 0.6-0.17-0.267-0.42-0.4-0.75-0.4z"/>
					<path d="m143.95-37c0.633 0 0.95-0.333 0.95-1s-0.316-1-0.95-1-0.95 0.333-0.95 1 0.32 1 0.95 1z"/>
					<path d="m146.6-40.65c-0.633 0-0.95 0.333-0.95 1s0.317 1 0.95 1c0.667 0 1-0.333 1-1 0-0.666-0.33-1-1-1z"/>
					<path d="m148.25-41.35c0.667 0 1-0.333 1-1s-0.333-1-1-1c-0.633 0-0.95 0.333-0.95 1s0.32 1 0.95 1z"/>
					<path d="m150.75-35.35c0.667 0 1-0.333 1-1s-0.333-1-1-1c-0.633 0-0.95 0.333-0.95 1s0.32 1 0.95 1z"/>
					<path d="m148.45-34.65c0.267 0 0.5-0.1 0.7-0.3 0.233-0.233 0.333-0.467 0.3-0.7-0.1-0.633-0.417-1.017-0.95-1.15s-0.917 0.05-1.15 0.55c-0.2 0.534-0.083 0.934 0.35 1.2 0.17 0.267 0.42 0.4 0.75 0.4z"/>
					<path d="m148.6-38.35c0.667 0 1-0.333 1-1s-0.333-1-1-1c-0.633 0-0.95 0.333-0.95 1s0.32 1 0.95 1z"/>
					<path d="m145.6-37.35c-0.633 0-0.95 0.333-0.95 1s0.317 1 0.95 1c0.667 0 1-0.333 1-1s-0.33-1-1-1z"/>
					<path d="m151.1-41.85c-0.633 0-0.95 0.333-0.95 1s0.317 1 0.95 1l0.25-0.05c-0.1 0.333-0.067 0.633 0.1 0.9 0.167 0.333 0.433 0.5 0.8 0.5l0.1-0.05c-0.1 0.333-0.067 0.633 0.1 0.9 0.167 0.333 0.433 0.5 0.8 0.5 0.667 0 1-0.333 1-1s-0.333-1-1-1h-0.1c0.1-0.333 0.083-0.633-0.05-0.9-0.2-0.3-0.483-0.45-0.85-0.45l-0.25 0.05c0.1-0.333 0.083-0.65-0.05-0.95-0.2-0.3-0.48-0.45-0.85-0.45z"/>
					<path d="m154.1-43.5c-0.633 0-0.95 0.333-0.95 1s0.317 1 0.95 1c0.667 0 1-0.333 1-1s-0.33-1-1-1z"/>
					<path d="m133.6-43.15c0.667 0 1-0.333 1-1s-0.333-1-1-1c-0.633 0-0.95 0.333-0.95 1s0.32 1 0.95 1z"/>
					<path d="m136.25-47.15c0.667 0 1-0.333 1-1s-0.333-1-1-1c-0.633 0-0.95 0.333-0.95 1s0.32 1 0.95 1z"/>
					<path d="m137.25-48.15c0 0.633 0.333 0.95 1 0.95s1-0.317 1-0.95v-0.5c0-0.667-0.333-1-1-1s-1 0.333-1 1v0.5z"/>
					<path d="m136.75-56c-0.633 0-0.95 0.333-0.95 1s0.317 1 0.95 1c0.667 0 1-0.333 1-1s-0.33-1-1-1z"/>
					<path d="m135.25-51.35c0.667 0 1-0.333 1-1s-0.333-1-1-1c-0.633 0-0.95 0.333-0.95 1s0.32 1 0.95 1z"/>
					<path d="m130.75-50.85c0.667 0 1-0.333 1-1s-0.333-1-1-1c-0.633 0-0.95 0.333-0.95 1s0.32 1 0.95 1z"/>
					<path d="m129.75-54.5c0.667 0 1-0.333 1-1s-0.333-1-1-1c-0.633 0-0.95 0.333-0.95 1s0.32 1 0.95 1z"/>
					<path d="m133.75-54.35c0.667 0 1-0.333 1-1s-0.333-1-1-1c-0.633 0-0.95 0.333-0.95 1s0.32 1 0.95 1z"/>
					<path d="m132.1-55.35c-0.633 0-0.95 0.333-0.95 1s0.317 1 0.95 1c0.667 0 1-0.333 1-1s-0.33-1-1-1z"/>
					<path d="m133.25-51.15c-0.633 0-0.95 0.333-0.95 1s0.317 1 0.95 1c0.667 0 1-0.333 1-1 0-0.666-0.33-1-1-1z"/>
					<path d="m127.1-47.35c-0.633 0-0.95 0.333-0.95 1s0.317 1 0.95 1c0.667 0 1-0.333 1-1s-0.33-1-1-1z"/>
					<path d="m123.1-47.5c0.667 0 1-0.333 1-1s-0.333-1-1-1c-0.633 0-0.95 0.333-0.95 1s0.32 1 0.95 1z"/>
					<path d="m120.6-47.15c-0.633 0-0.95 0.333-0.95 1s0.317 1 0.95 1c0.667 0 1-0.333 1-1 0-0.666-0.33-1-1-1z"/>
					<path d="m116.75-44.65c0.667 0 1-0.333 1-1s-0.333-1-1-1c-0.633 0-0.95 0.333-0.95 1s0.32 1 0.95 1z"/>
					<path d="m119.25-51.5c-0.633 0-0.95 0.333-0.95 1s0.317 1 0.95 1c0.667 0 1-0.333 1-1s-0.33-1-1-1z"/>
					<path d="m120.75-53c-0.633 0-0.95 0.333-0.95 1s0.317 1 0.95 1c0.667 0 1-0.333 1-1s-0.33-1-1-1z"/>
					<path d="m119.7-49.05c-0.467 0.467-0.45 0.933 0.05 1.4 0.467 0.467 0.933 0.467 1.4 0l0.15-0.15c0.467-0.467 0.467-0.933 0-1.4-0.5-0.467-0.966-0.467-1.4 0l-0.2 0.15z"/>
					<path d="m123.6-50.85c0.667 0 1-0.333 1-1s-0.333-1-1-1c-0.633 0-0.95 0.333-0.95 1s0.32 1 0.95 1z"/>
					<path d="m128.6-49.15c0.2 0.333 0.483 0.5 0.85 0.5 0.633 0 0.95-0.333 0.95-1s-0.316-1-0.95-1h-0.1c0.1-0.333 0.083-0.633-0.05-0.9-0.2-0.3-0.483-0.45-0.85-0.45-0.2 0-0.4 0.067-0.6 0.2-0.2-0.133-0.4-0.2-0.6-0.2-0.567 0-0.883 0.3-0.95 0.9l-0.35-0.05c-0.633 0-0.95 0.333-0.95 1s0.317 1 0.95 1c0.566 0 0.883-0.316 0.95-0.95l0.35 0.1c0.2 0 0.4-0.066 0.6-0.2 0.2 0.133 0.4 0.2 0.6 0.2l0.05-0.05c-0.1 0.334-0.07 0.633 0.1 0.9z"/>
					<path d="m124.75-45c0.667 0 1-0.333 1-1s-0.333-1-1-1c-0.633 0-0.95 0.333-0.95 1s0.32 1 0.95 1z"/>
					<path d="m130.45-48.15c-0.567 0-0.883 0.25-0.95 0.75-0.1 0.533 0.067 0.9 0.5 1.1-0.033 0.3 0.033 0.567 0.2 0.8s0.417 0.35 0.75 0.35c0.4 0 0.683-0.183 0.85-0.55 0.133-0.3 0.133-0.617 0-0.95 0.1 0.1 0.25 0.15 0.45 0.15 0.667 0 1-0.333 1-1s-0.333-1-1-1c-0.567 0-0.883 0.3-0.95 0.9-0.17-0.366-0.45-0.55-0.85-0.55z"/>
					<path d="m137.95-54.15c-0.434 0-0.717 0.167-0.85 0.5-0.167 0.333-0.167 0.65 0 0.95v0.2c0 0.633 0.333 0.95 1 0.95s1-0.317 1-0.95v-0.35c0-0.267-0.083-0.483-0.25-0.65-0.13-0.433-0.43-0.65-0.9-0.65z"/>
					<path d="m139.95-50c0.633 0 0.95-0.333 0.95-1s-0.316-1-0.95-1-0.95 0.333-0.95 1 0.32 1 0.95 1z"/>
					<path d="m141.6-53.5c0.667 0 1-0.333 1-1s-0.333-1-1-1c-0.633 0-0.95 0.333-0.95 1s0.32 1 0.95 1z"/>
					<path d="m143.4-52.75c-0.267-0.333-0.633-0.45-1.1-0.35-0.466 0.133-0.7 0.45-0.7 0.95v0.15c0 0.4 0.167 0.684 0.5 0.85 0.3 0.133 0.617 0.133 0.95 0 0.167 0.2 0.4 0.3 0.7 0.3 0.667 0 1-0.333 1-1s-0.333-1-1-1l-0.35 0.1z"/>
					<path d="m143.8-54.9l-0.05 0.4c0.067 0.567 0.367 0.934 0.9 1.1 0.567 0.2 0.95 0 1.15-0.6 0.133 0.567 0.45 0.85 0.95 0.85 0.667 0 1-0.333 1-1s-0.333-1-1-1c-0.433 0-0.733 0.2-0.9 0.6 0-0.233-0.117-0.433-0.35-0.6 0.1-0.3 0.083-0.583-0.05-0.85s-0.367-0.433-0.7-0.5c0.133-0.133 0.2-0.3 0.2-0.5v-0.15c0-0.667-0.333-1-1-1s-1 0.333-1 1v0.15c0 0.567 0.283 0.883 0.85 0.95-0.23 0.367-0.23 0.75 0 1.15z"/>
					<path d="m146.25-49.35c-0.4 0.233-0.533 0.6-0.4 1.1 0.1 0.5 0.4 0.75 0.9 0.75 0.4 0 0.683-0.183 0.85-0.55 0.167-0.3 0.167-0.617 0-0.95 0.367-0.233 0.517-0.583 0.45-1.05-0.1-0.5-0.4-0.767-0.9-0.8 0.267-0.3 0.333-0.65 0.2-1.05s-0.434-0.6-0.9-0.6c-0.633 0-0.967 0.317-1 0.95 0 0.633 0.3 0.983 0.9 1.05-0.27 0.333-0.3 0.717-0.1 1.15z"/>
					<path d="m149.95-53c0.633 0 0.95-0.333 0.95-1s-0.316-1-0.95-1-0.95 0.333-0.95 1 0.32 1 0.95 1z"/>
					<path d="m152.75-52.65c0-0.667-0.333-1-1-1s-1 0.333-1 1v0.15c0 0.633 0.333 0.95 1 0.95s1-0.317 1-0.95v-0.15z"/>
					<path d="m151.75-51.35c-0.633 0-0.95 0.333-0.95 1s0.317 1 0.95 1c0.667 0 1-0.333 1-1s-0.33-1-1-1z"/>
					<path d="m154.75-50.15c0-0.667-0.333-1-1-1-0.633 0-0.95 0.333-0.95 1s0.317 1 0.95 1c0.67 0 1-0.333 1-1z"/>
					<path d="m149.25-52.15c-0.633 0-0.95 0.333-0.95 1s0.317 1 0.95 1c0.667 0 1-0.333 1-1 0-0.666-0.33-1-1-1z"/>
					<path d="m154.25-53.65c-0.633 0-0.95 0.333-0.95 1s0.317 1 0.95 1c0.667 0 1-0.333 1-1 0-0.666-0.33-1-1-1z"/>
					<path d="m155.25-53.5c0.667 0 1-0.333 1-1s-0.333-1-1-1c-0.633 0-0.95 0.333-0.95 1s0.32 1 0.95 1z"/>
					<path d="m139.9-55.55c-0.066-0.633-0.383-0.95-0.95-0.95s-0.9 0.267-1 0.8c-0.1 0.5 0.066 0.867 0.5 1.1 0.066 0.633 0.4 0.95 1 0.95 0.533 0 0.85-0.267 0.95-0.8s-0.07-0.9-0.5-1.1z"/>
					<path d="m137.75-59.15c0.667 0 1-0.333 1-1s-0.333-1-1-1c-0.633 0-0.95 0.333-0.95 1s0.32 1 0.95 1z"/>
					<path d="m132.3-59.1c-0.267 0.066-0.466 0.233-0.6 0.5-0.1 0.233-0.1 0.483 0 0.75-0.233 0.333-0.284 0.683-0.15 1.05 0.133 0.433 0.434 0.65 0.9 0.65 0.367 0 0.633-0.15 0.8-0.45s0.2-0.6 0.1-0.9l0.2-0.55c0.5-0.167 0.733-0.533 0.7-1.1-0.067-0.566-0.4-0.85-1-0.85-0.57 0-0.88 0.3-0.95 0.9z"/>
					<path d="m131.95-61c0.633 0 0.95-0.333 0.95-1s-0.316-1-0.95-1-0.95 0.333-0.95 1 0.32 1 0.95 1z"/>
					<path d="m127.6-60.35c-0.567 0-0.883 0.283-0.95 0.85-0.066 0.567 0.15 0.934 0.65 1.1 0.067 0.6 0.383 0.9 0.95 0.9 0.6 0 0.933-0.283 1-0.85 0.033-0.567-0.2-0.934-0.7-1.1-0.07-0.6-0.38-0.9-0.95-0.9z"/>
					<path d="m128.75-63.35c0-0.667-0.333-1-1-1-0.633 0-0.95 0.333-0.95 1s0.317 1 0.95 1c0.233 0 0.417-0.05 0.55-0.15 0 0.667 0.317 1 0.95 1 0.667 0 1-0.333 1-1s-0.333-1-1-1c-0.23 0-0.4 0.05-0.5 0.15z"/>
					<path d="m123.45-58.15c0.633 0 0.95-0.333 0.95-1s-0.316-1-0.95-1-0.95 0.333-0.95 1 0.32 1 0.95 1z"/>
					<path d="m123.1-57.15c-0.633 0-0.95 0.333-0.95 1s0.317 1 0.95 1c0.667 0 1-0.333 1-1 0-0.666-0.33-1-1-1z"/>
					<path d="m119.25-53.15c0.667 0 1-0.333 1-1s-0.333-1-1-1c-0.633 0-0.95 0.333-0.95 1s0.32 1 0.95 1z"/>
					<path d="m119.25-56.85c0.667 0 1-0.333 1-1s-0.333-1-1-1c-0.633 0-0.95 0.333-0.95 1s0.32 1 0.95 1z"/>
					<path d="m119.25-59c0.667 0 1-0.333 1-1s-0.333-1-1-1c-0.633 0-0.95 0.333-0.95 1s0.32 1 0.95 1z"/>
					<path d="m115.6-61.85c-0.633 0-0.95 0.333-0.95 1s0.317 1 0.95 1c0.667 0 1-0.333 1-1s-0.33-1-1-1z"/>
					<path d="m118.95-66c-0.633 0-0.95 0.333-0.95 1s0.317 1 0.95 1 0.95-0.333 0.95-1-0.32-1-0.95-1z"/>
					<path d="m120.7-67.65c-0.567-0.133-0.95 0.067-1.15 0.6-0.2 0.5-0.1 0.9 0.3 1.2 0.066 0.066 0.217 0.167 0.45 0.3-0.2 0.3-0.216 0.633-0.05 1 0.133 0.367 0.417 0.55 0.85 0.55 0.566 0 0.883-0.283 0.95-0.85s-0.15-0.934-0.65-1.1c0.133-0.133 0.2-0.317 0.2-0.55-0.07-0.633-0.37-1.017-0.9-1.15z"/>
					<path d="m122.45-63.65c-0.633 0-0.95 0.333-0.95 1s0.317 1 0.95 1 0.95-0.333 0.95-1c0-0.666-0.32-1-0.95-1z"/>
					<path d="m126.45-56.15c-0.633 0-0.95 0.333-0.95 1s0.317 1 0.95 1 0.95-0.333 0.95-1c0-0.666-0.32-1-0.95-1z"/>
					<path d="m124.95-61c0.633 0 0.95-0.333 0.95-1s-0.316-1-0.95-1-0.95 0.333-0.95 1 0.32 1 0.95 1z"/>
					<path d="m123.1-65.35c0.667 0 1-0.333 1-1s-0.333-1-1-1c-0.633 0-0.95 0.333-0.95 1s0.32 1 0.95 1z"/>
					<path d="m122.95-68.65c0.633 0 0.95-0.333 0.95-1s-0.316-1-0.95-1-0.95 0.333-0.95 1 0.32 1 0.95 1z"/>
					<path d="m125.2-68.65c0.466 0.467 0.933 0.467 1.4 0 0.5-0.467 0.517-0.933 0.05-1.4l-0.2-0.15c-0.434-0.467-0.883-0.467-1.35 0-0.5 0.467-0.517 0.933-0.05 1.4l0.15 0.15z"/>
					<path d="m129.25-66.85c0.667 0 1-0.333 1-1s-0.333-1-1-1c-0.367 0-0.633 0.133-0.8 0.4-0.133 0.233-0.167 0.5-0.1 0.8h-0.25c-0.633 0-0.95 0.333-0.95 1s0.317 1 0.95 1c0.367 0 0.633-0.133 0.8-0.4s0.217-0.55 0.15-0.85l0.2 0.05z"/>
					<path d="m130.95-63.65c0.633 0 0.95-0.333 0.95-1s-0.316-1-0.95-1-0.95 0.333-0.95 1 0.32 1 0.95 1z"/>
					<path d="m126.15-65.45c0.233-0.233 0.333-0.467 0.3-0.7-0.1-0.633-0.417-1.017-0.95-1.15s-0.917 0.05-1.15 0.55c-0.2 0.534-0.083 0.934 0.35 1.2 0.167 0.267 0.417 0.4 0.75 0.4 0.27 0 0.5-0.1 0.7-0.3z"/>
					<path d="m116.95-67.35c0.633 0 0.95-0.333 0.95-1s-0.316-1-0.95-1-0.95 0.333-0.95 1 0.32 1 0.95 1z"/>
					<path d="m114.45-64c0.133-0.267 0.15-0.566 0.05-0.9l0.25 0.05c0.667 0 1-0.333 1-1s-0.333-1-1-1c-0.367 0-0.633 0.15-0.8 0.45s-0.2 0.617-0.1 0.95l-0.25-0.05h-0.15c-0.633 0-0.95 0.333-0.95 1s0.317 1 0.95 1h0.15c0.37 0 0.65-0.167 0.85-0.5z"/>
					<path d="m111.45-66.15c-0.633 0-0.95 0.333-0.95 1s0.317 1 0.95 1 0.95-0.333 0.95-1c0-0.666-0.32-1-0.95-1z"/>
					<path d="m109.95-67.65c0.633 0 0.95-0.333 0.95-1s-0.316-1-0.95-1-0.95 0.333-0.95 1 0.32 1 0.95 1z"/>
					<path d="m111.2-69.3c0.466 0.433 0.933 0.417 1.4-0.05 0.5-0.434 0.517-0.883 0.05-1.35l-0.2-0.2c-0.467-0.467-0.917-0.45-1.35 0.05-0.467 0.466-0.483 0.933-0.05 1.4l0.15 0.15z"/>
					<path d="m113.45-67.35c0.633 0 0.95-0.333 0.95-1s-0.316-1-0.95-1-0.95 0.333-0.95 1 0.32 1 0.95 1z"/>
					<path d="m115.8-69.65l0.15-0.15c0.466-0.467 0.466-0.933 0-1.4-0.467-0.467-0.934-0.467-1.4 0l-0.15 0.15c-0.467 0.467-0.45 0.933 0.05 1.4 0.47 0.467 0.92 0.467 1.35 0z"/>
					<path d="m120.1-69.85c0.667 0 1-0.333 1-1s-0.333-1-1-1l-0.1 0.05c-0.1-0.467-0.4-0.7-0.9-0.7-0.633 0-0.95 0.333-0.95 1s0.317 1 0.95 1l0.1-0.05c0.13 0.467 0.43 0.7 0.9 0.7z"/>
					<path d="m122.75-71.5c0.667 0 1-0.333 1-1s-0.333-1-1-1c-0.633 0-0.95 0.333-0.95 1s0.32 1 0.95 1z"/>
					<path d="m108.1-69.35c0.667 0 1-0.333 1-1s-0.333-1-1-1h-0.15c-0.633 0-0.95 0.333-0.95 1s0.317 1 0.95 1h0.15z"/>
					<path d="m102.85-67.85c0.167 0.233 0.417 0.35 0.75 0.35 0.533 0 0.85-0.267 0.95-0.8 0.1-0.5-0.066-0.867-0.5-1.1l0.05-0.1c0-0.433-0.2-0.733-0.6-0.9-0.1-0.233-0.267-0.4-0.5-0.5 0.067-0.333 0.033-0.617-0.1-0.85-0.167-0.267-0.433-0.4-0.8-0.4-0.533 0-0.85 0.25-0.95 0.75-0.066 0.533 0.1 0.9 0.5 1.1l-0.05 0.3c0.066 0.733 0.417 1.2 1.05 1.4-0.03 0.267 0.03 0.517 0.2 0.75z"/>
					<path d="m105.75-69.35c0.433 0 0.733-0.2 0.9-0.6 0.133-0.333 0.1-0.667-0.1-1 0.2-0.3 0.233-0.633 0.1-1-0.167-0.367-0.467-0.55-0.9-0.55s-0.717 0.184-0.85 0.55c-0.167 0.367-0.15 0.7 0.05 1-0.2 0.333-0.217 0.667-0.05 1 0.13 0.4 0.42 0.6 0.85 0.6z"/>
					<path d="m107.75-68c-0.633 0-0.95 0.333-0.95 1s0.317 1 0.95 1c0.667 0 1-0.333 1-1s-0.33-1-1-1z"/>
					<path d="m98.1-71c0.667 0 1-0.333 1-1s-0.333-1-1-1c-0.633 0-0.95 0.333-0.95 1s0.317 1 0.95 1z"/>
					<path d="m95.2-70.55c0.167-0.267 0.216-0.55 0.15-0.85 0.367 0.1 0.683 0.017 0.95-0.25l0.35-0.3c0.467-0.467 0.45-0.934-0.05-1.4-0.467-0.5-0.934-0.517-1.4-0.05l-0.3 0.35c-0.267 0.267-0.35 0.567-0.25 0.9h-0.2c-0.633 0-0.95 0.333-0.95 1s0.317 1 0.95 1c0.333 0 0.583-0.133 0.75-0.4z"/>
					<path d="m92.6-69.15c0.667 0 1-0.333 1-1s-0.333-1-1-1h-0.35c-0.633 0-0.95 0.333-0.95 1s0.317 1 0.95 1h0.35z"/>
					<path d="m90.4-71.25c0.5-0.133 0.717-0.483 0.65-1.05-0.066-0.567-0.383-0.85-0.95-0.85-0.7 0-1.017 0.35-0.95 1.05-0.5 0.133-0.717 0.483-0.65 1.05 0.033 0.6 0.35 0.9 0.95 0.9 0.633 0 0.95-0.367 0.95-1.1z"/>
					<path d="m139.75-46.65c-0.633 0-0.95 0.333-0.95 1s0.317 1 0.95 1c0.667 0 1-0.333 1-1 0-0.666-0.33-1-1-1z"/>
					<path d="m142.75-49.35c-0.633 0-0.95 0.333-0.95 1s0.317 1 0.95 1c0.667 0 1-0.333 1-1s-0.33-1-1-1z"/>
					<path d="m140.45-65.65c0.633 0 0.95-0.333 0.95-1s-0.316-1-0.95-1-0.95 0.333-0.95 1 0.32 1 0.95 1z"/>
					<path d="m144.6-61.35c0.667 0 1-0.333 1-1s-0.333-1-1-1c-0.633 0-0.95 0.333-0.95 1s0.32 1 0.95 1z"/>
					<path d="m146.5-65.25l0.25 0.1c0.667 0 1-0.333 1-1s-0.333-1-1-1c-0.367 0-0.633 0.15-0.8 0.45-0.167 0.267-0.2 0.566-0.1 0.9l-0.25-0.05c-0.633 0-0.95 0.333-0.95 1s0.317 1 0.95 1c0.367 0 0.65-0.167 0.85-0.5 0.13-0.267 0.15-0.567 0.05-0.9z"/>
					<path d="m143.1-64.65c0.667 0 1-0.333 1-1s-0.333-1-1-1c-0.633 0-0.95 0.333-0.95 1s0.32 1 0.95 1z"/>
					<path d="m144.75-68c0.667 0 1-0.333 1-1s-0.333-1-1-1c-0.633 0-0.95 0.333-0.95 1s0.32 1 0.95 1z"/>
					<path d="m148.45-68.5c0.633 0 0.95-0.333 0.95-1s-0.316-1-0.95-1-0.95 0.333-0.95 1 0.32 1 0.95 1z"/>
					<path d="m150.45-65.85c0.633 0 0.95-0.333 0.95-1s-0.316-1-0.95-1-0.95 0.333-0.95 1 0.32 1 0.95 1z"/>
					<path d="m148.75-62.15c-0.633 0-0.95 0.333-0.95 1s0.317 1 0.95 1c0.667 0 1-0.333 1-1 0-0.666-0.33-1-1-1z"/>
					<path d="m149.1-58.15c0.667 0 1-0.333 1-1s-0.333-1-1-1c-0.633 0-0.95 0.333-0.95 1s0.32 1 0.95 1z"/>
					<path d="m153.45-59.85c0.633 0 0.95-0.333 0.95-1s-0.316-1-0.95-1-0.95 0.333-0.95 1 0.32 1 0.95 1z"/>
					<path d="m153.25-62.5c0.667 0 1-0.333 1-1s-0.333-1-1-1c-0.633 0-0.95 0.333-0.95 1s0.32 1 0.95 1z"/>
					<path d="m138.1-68.85c0.667 0 1-0.333 1-1s-0.333-1-1-1c-0.633 0-0.95 0.333-0.95 1s0.32 1 0.95 1z"/>
					<path d="m137.25-68.35c-0.633 0-0.95 0.333-0.95 1s0.317 1 0.95 1c0.667 0 1-0.333 1-1s-0.33-1-1-1z"/>
					<path d="m135.1-67.65c0.667 0 1-0.333 1-1s-0.333-1-1-1c-0.633 0-0.95 0.333-0.95 1s0.32 1 0.95 1z"/>
					<path d="m135.75-69.85c0.667 0 1-0.333 1-1s-0.333-1-1-1h-0.15c-0.633 0-0.95 0.333-0.95 1s0.317 1 0.95 1h0.15z"/>
					<path d="m133.1-70c0.667 0 1-0.333 1-1s-0.333-1-1-1c-0.633 0-0.95 0.333-0.95 1s0.32 1 0.95 1z"/>
					<path d="m77.25-72.65c-0.633 0-0.95 0.333-0.95 1s0.317 1 0.95 1c0.667 0 1-0.333 1-1 0-0.666-0.333-1-1-1z"/>
					<path d="m75.6-73.85c0.667 0 1-0.333 1-1s-0.333-1-1-1c-0.633 0-0.95 0.333-0.95 1s0.317 1 0.95 1z"/>
					<path d="m73.75-75.65c0.667 0 1-0.333 1-1s-0.333-1-1-1c-0.633 0-0.95 0.333-0.95 1s0.317 1 0.95 1z"/>
					<path d="m77.4-74.2c0.167 0.367 0.45 0.55 0.85 0.55 0.533 0 0.85-0.25 0.95-0.75s-0.034-0.867-0.4-1.1c0.1-0.3 0.15-0.466 0.15-0.5v-0.15c0-0.667-0.333-1-1-1s-1 0.333-1 1v0.15c0 0.434 0.167 0.7 0.5 0.8-0.2 0.333-0.217 0.667-0.05 1z"/>
					<path d="m64.25-76.35c0.667 0 1-0.333 1-1s-0.333-1-1-1c-0.633 0-0.95 0.333-0.95 1s0.317 1 0.95 1z"/>
					<path d="m61.95-73.15c0.633 0 0.95-0.333 0.95-1s-0.316-1-0.95-1c-0.567 0-0.883 0.267-0.95 0.8h-0.05c-0.633 0-0.95 0.333-0.95 1s0.317 1 0.95 1c0.533 0 0.833-0.284 0.9-0.85l0.1 0.05z"/>
					<path d="m57.6-72.65c0.667 0 1-0.333 1-1s-0.333-1-1-1c-0.633 0-0.95 0.333-0.95 1s0.317 1 0.95 1z"/>
					<path d="m54.3-72.2c0.534-0.1 0.784-0.45 0.75-1.05-0.033-0.6-0.35-0.9-0.95-0.9-0.4 0-0.684 0.167-0.85 0.5-0.633 0-0.95 0.333-0.95 1s0.317 1 0.95 1h0.2c0.4 0 0.683-0.183 0.85-0.55z"/>
					<path d="m67.6-75.5c0.667 0 1-0.333 1-1s-0.333-1-1-1c-0.567 0-0.883 0.284-0.95 0.85h-0.05c-0.633 0-0.95 0.333-0.95 1s0.317 1 0.95 1c0.5 0 0.816-0.283 0.95-0.85h0.05z"/>
					<path d="m69.15-73.75c0.167 0.267 0.434 0.4 0.8 0.4 0.633 0 0.95-0.333 0.95-1s-0.316-1-0.95-1c-0.434 0-0.733 0.2-0.9 0.6-0.167-0.267-0.433-0.4-0.8-0.4-0.433 0-0.717 0.184-0.85 0.55-0.167 0.333-0.15 0.667 0.05 1-0.2 0.333-0.217 0.667-0.05 1 0.133 0.4 0.417 0.6 0.85 0.6s0.733-0.2 0.9-0.6c0.133-0.333 0.1-0.667-0.1-1l0.1-0.15z"/>
					<path d="m72.45-71.15c0.633 0 0.95-0.333 0.95-1s-0.316-1-0.95-1-0.95 0.333-0.95 1 0.317 1 0.95 1z"/>
					<path d="m74.9-68.35c0-0.667-0.316-1-0.95-1h-0.05c-0.066-0.3-0.2-0.517-0.4-0.65-0.233-0.233-0.483-0.35-0.75-0.35s-0.5 0.1-0.7 0.3c-0.233 0.2-0.333 0.433-0.3 0.7 0.067 0.633 0.367 1.017 0.9 1.15h0.35c0.067 0.566 0.383 0.85 0.95 0.85 0.633 0 0.95-0.333 0.95-1z"/>
					<path d="m28.6-61.35c0.667 0 1-0.333 1-1s-0.333-1-1-1c-0.633 0-0.95 0.333-0.95 1s0.317 1 0.95 1z"/>
					<path d="m30.5-61.65c0.233 0.567 0.65 0.75 1.25 0.55 0.567-0.167 0.783-0.55 0.65-1.15-0.033-0.167-0.117-0.316-0.25-0.45-0.2-0.567-0.6-0.75-1.2-0.55-0.567 0.167-0.784 0.55-0.65 1.15 0.067 0.233 0.133 0.384 0.2 0.45z"/>
					<path d="m34.95-60.15c-0.4 0-0.684 0.15-0.85 0.45-0.167 0.267-0.184 0.566-0.05 0.9-0.2-0.133-0.4-0.2-0.6-0.2-0.633 0-0.95 0.333-0.95 1s0.317 1 0.95 1c0.367 0 0.633-0.167 0.8-0.5 0.167-0.267 0.183-0.566 0.05-0.9 0.233 0.167 0.45 0.25 0.65 0.25 0.3 0 0.55-0.133 0.75-0.4l0.1 0.3c0.133 0.633 0.517 0.867 1.15 0.7 0.667-0.167 0.917-0.567 0.75-1.2 0-0.133-0.05-0.3-0.15-0.5-0.033-0.267-0.183-0.466-0.45-0.6-0.233-0.133-0.483-0.167-0.75-0.1-0.167 0.033-0.35 0.15-0.55 0.35-0.167-0.366-0.45-0.55-0.85-0.55z"/>
					<path d="m37.45-53.65c0.633 0 0.95-0.333 0.95-1s-0.316-1-0.95-1-0.95 0.333-0.95 1 0.317 1 0.95 1z"/>
					<path d="m40.6-53.3v0.15l-0.05-0.15h0.05zm-0.25-0.45c-0.267-0.333-0.633-0.45-1.1-0.35-0.467 0.133-0.683 0.45-0.65 0.95 0 0.7 0.383 1.083 1.15 1.15 0.5 0 0.817-0.233 0.95-0.7 0.1-0.433-0.017-0.783-0.35-1.05z"/>
					<path d="m71.1-30.5c-0.633 0-0.95 0.333-0.95 1s0.317 1 0.95 1c0.667 0 1-0.333 1-1s-0.333-1-1-1z"/>
					<path d="m71.7-33.05c-0.1 0.3-0.067 0.6 0.1 0.9 0.167 0.333 0.434 0.5 0.8 0.5 0.533 0 0.85-0.267 0.95-0.8s-0.066-0.9-0.5-1.1l0.15-0.2 0.4 0.1c0.667 0 1-0.333 1-1s-0.333-1-1-1c-0.367 0-0.633 0.133-0.8 0.4l-0.35-0.1c-0.5 0-0.8 0.2-0.9 0.6l-0.45-0.1c-0.633 0-0.95 0.333-0.95 1s0.317 1 0.95 1c0.2 0 0.4-0.067 0.6-0.2z"/>
					<path d="m75.1-38.85c-0.633 0-0.95 0.333-0.95 1s0.317 1 0.95 1c0.5 0 0.8-0.233 0.9-0.7 0.2 0.133 0.4 0.2 0.6 0.2 0.667 0 1-0.333 1-1s-0.333-1-1-1c-0.434 0-0.75 0.233-0.95 0.7-0.2-0.133-0.383-0.2-0.55-0.2z"/>
					<path d="m72.5-38.35c0.433-0.3 0.533-0.7 0.3-1.2-0.2-0.533-0.583-0.733-1.15-0.6-0.533 0.133-0.833 0.517-0.9 1.15-0.033 0.267 0.067 0.5 0.3 0.7 0.2 0.2 0.434 0.3 0.7 0.3s0.517-0.117 0.75-0.35z"/>
					<path d="m71.15-42.5c0 0.667 0.317 1 0.95 1 0.433 0 0.717-0.2 0.85-0.6 0.167-0.333 0.15-0.667-0.05-1 0.333 0.1 0.65 0.033 0.95-0.2 0.333-0.233 0.45-0.55 0.35-0.95-0.034-0.267-0.133-0.5-0.3-0.7 0.2-0.3 0.217-0.633 0.05-1-0.133-0.367-0.417-0.55-0.85-0.55-0.434 0-0.733 0.2-0.9 0.6-0.133 0.367-0.083 0.7 0.15 1-0.326 0.456-0.317 0.864 0.025 1.225l-0.075-0.075c0 0.1 0.05 0.2 0.15 0.3l-0.35-0.05c-0.633 0-0.95 0.333-0.95 1z"/>
					<path d="m74.75-39.65c0.667 0 1-0.333 1-1s-0.333-1-1-1c-0.633 0-0.95 0.333-0.95 1s0.317 1 0.95 1z"/>
					<path d="m78.25-34.35c0.667 0 1-0.333 1-1s-0.333-1-1-1c-0.633 0-0.95 0.333-0.95 1s0.317 1 0.95 1z"/>
					<path d="m69.95-26.35c-0.633 0-0.95 0.333-0.95 1s0.317 1 0.95 1 0.95-0.333 0.95-1-0.317-1-0.95-1z"/>
					<path d="m100.25-34.85c-0.633 0-0.95 0.333-0.95 1s0.317 1 0.95 1c0.667 0 1-0.333 1-1s-0.33-1-1-1z"/>
					<path d="m96.2-34.45l0.2 0.15c0.467 0.433 0.934 0.417 1.4-0.05 0.467-0.467 0.467-0.917 0-1.35l-0.15-0.2c-0.467-0.467-0.933-0.45-1.4 0.05-0.467 0.467-0.483 0.933-0.05 1.4z"/>
					<path d="m97.15-37.9c-0.2-0.533-0.6-0.7-1.2-0.5-0.567 0.167-0.784 0.55-0.65 1.15l0.2 0.45c0.233 0.567 0.65 0.75 1.25 0.55s0.817-0.6 0.65-1.2l-0.25-0.45z"/>
					<path d="m97-41.55c0.433-0.3 0.533-0.7 0.3-1.2-0.2-0.5-0.583-0.683-1.15-0.55-0.533 0.133-0.833 0.517-0.9 1.15-0.033 0.233 0.067 0.467 0.3 0.7 0.2 0.2 0.434 0.3 0.7 0.3 0.3 0 0.55-0.133 0.75-0.4z"/>
					<path d="m97.75-43.15c0.667 0 1-0.333 1-1s-0.333-1-1-1c-0.633 0-0.95 0.333-0.95 1s0.317 1 0.95 1z"/>
					<path d="m99.25-38.35c-0.633 0-0.95 0.333-0.95 1s0.317 1 0.95 1c0.667 0 1-0.333 1-1s-0.333-1-1-1z"/>
					<path d="m101.75-37.35c-0.633 0-0.95 0.333-0.95 1s0.317 1 0.95 1c0.667 0 1-0.333 1-1s-0.33-1-1-1z"/>
					<path d="m104.95-36.5v-0.15c0-0.667-0.333-1-1-1s-1 0.333-1 1v0.15c0 0.633 0.333 0.95 1 0.95 0.67 0 1-0.317 1-0.95z"/>
					<path d="m103.25-34.15c-0.633 0-0.95 0.333-0.95 1s0.317 1 0.95 1c0.667 0 1-0.333 1-1 0-0.666-0.33-1-1-1z"/>
					<path d="m98.1-32.35c-0.633 0-0.95 0.333-0.95 1s0.317 1 0.95 1c0.667 0 1-0.333 1-1s-0.333-1-1-1z"/>
					<path d="m95.6-32.35c-0.633 0-0.95 0.333-0.95 1s0.317 1 0.95 1c0.667 0 1-0.333 1-1s-0.333-1-1-1z"/>
					<path d="m104.1-31.85c-0.633 0-0.95 0.333-0.95 1s0.317 1 0.95 1c0.667 0 1-0.333 1-1s-0.33-1-1-1z"/>
					<path d="m108.1-38.85c-0.633 0-0.95 0.333-0.95 1s0.317 1 0.95 1c0.667 0 1-0.333 1-1s-0.33-1-1-1z"/>
					<path d="m100.7-41.8c-0.367-0.1-0.667-0.033-0.9 0.2-0.233 0.2-0.35 0.466-0.35 0.8l-0.2-0.05c-0.633 0-0.95 0.333-0.95 1s0.317 1 0.95 1c0.3 0 0.533-0.1 0.7-0.3 0.167-0.167 0.25-0.367 0.25-0.6l0.4 0.1c0.267 0 0.5-0.1 0.7-0.3 0.233-0.233 0.333-0.467 0.3-0.7l-0.05-0.15c0.267 0.2 0.5 0.3 0.7 0.3 0.667 0 1-0.333 1-1s-0.333-1-1-1c-0.7 0-1.017 0.367-0.95 1.1-0.17-0.233-0.37-0.367-0.6-0.4z"/>
					<path d="m97.15-47.7c-0.467-0.467-0.933-0.467-1.4 0-0.5 0.467-0.517 0.933-0.05 1.4l0.2 0.15c0.434 0.467 0.9 0.467 1.4 0 0.467-0.467 0.467-0.933 0-1.4l-0.15-0.15z"/>
					<path d="m94.25-50c0.667 0 1-0.333 1-1s-0.333-1-1-1h-0.1c0.2-0.2 0.3-0.417 0.3-0.65v-0.2c0-0.667-0.333-1-1-1s-1 0.333-1 1v0.2c0 0.333 0.117 0.583 0.35 0.75s0.5 0.217 0.8 0.15c-0.3 0.3-0.383 0.667-0.25 1.1 0.133 0.434 0.433 0.65 0.9 0.65z"/>
					<path d="m94.25-47c-0.633 0-0.95 0.333-0.95 1s0.317 1 0.95 1c0.667 0 1-0.333 1-1s-0.333-1-1-1z"/>
					<path d="m100.5-45.2l0.1 0.05c0.667 0 1-0.333 1-1s-0.333-1-1-1c-0.434 0-0.733 0.2-0.9 0.6-0.133 0.4-0.083 0.75 0.15 1.05h-0.1c-0.633 0-0.95 0.333-0.95 1s0.317 1 0.95 1c0.467 0 0.767-0.216 0.9-0.65 0.13-0.4 0.08-0.75-0.15-1.05z"/>
				</g>
			<g clip-rule="evenodd" fill="#fff" fill-rule="evenodd">
				<polygon points="30.7 -11.55 26.45 -14.15 29.1 -9.9 26.45 -5.7 30.7 -8.35 34.9 -5.7 32.3 -9.9 34.9 -14.15"/>
				<polygon points="95.25 -28.4 91.05 -31 93.65 -26.8 91.05 -22.55 95.25 -25.2 99.5 -22.55 96.85 -26.8 99.5 -31"/>
				<polygon points="23.35 -35.85 19.1 -38.5 21.75 -34.25 19.1 -30.05 23.35 -32.65 27.55 -30.05 24.95 -34.25 27.55 -38.5"/>
				<polygon points="149.55 -24.1 145.3 -26.75 147.95 -22.5 145.3 -18.3 149.55 -20.9 153.75 -18.3 151.15 -22.5 153.75 -26.75"/>
				<polygon points="42.6 -12.2 45.75 -10.2 43.8 -13.35 45.75 -16.5 42.6 -14.55 39.45 -16.5 41.4 -13.35 39.45 -10.2"/>
				<polygon points="66.75 -24.05 63.6 -26 65.55 -22.85 63.6 -19.7 66.75 -21.65 69.9 -19.7 67.95 -22.85 69.9 -26"/>
				<polygon points="112.95 -47.2 109.8 -49.15 111.75 -46 109.8 -42.85 112.95 -44.8 116.05 -42.85 114.1 -46 116.05 -49.15"/>
			</g>
					<use transform="translate(15.7 -.0498)" x="-0.034" y="-54.686" width="40.017" height="54.72" enable-background="new" opacity=".6914" xlink:href="#u"/>
					<use transform="translate(71.95 -2.75)" y="-52.069" width="51.919" height="52.115" enable-background="new" opacity=".6914" xlink:href="#t"/>
					<use transform="translate(125.1 -9)" x="-0.048" y="-53.905" width="44.846" height="53.96" enable-background="new" opacity=".4297" xlink:href="#v"/>
</symbol>
<symbol id="r" viewBox="0 -40.7 191.85 40.629">
			<radialGradient id="m" cx="95.65" cy="-18.55" r="82.65" gradientTransform="matrix(1 0 0 -.227 0 -22.761)" gradientUnits="userSpaceOnUse">
			<stop stop-opacity=".6196" offset="0"/>
			<stop stop-opacity="0" offset="1"/>
		</radialGradient>
		<path d="m181.6-8.25c6.833-3.133 10.25-6.483 10.25-10.05 0-6.167-9.367-11.45-28.1-15.85-18.733-4.367-41.333-6.55-67.8-6.55-26.5 0-49.117 2.184-67.85 6.55-18.733 4.4-28.1 9.683-28.1 15.85 0 2.367 1.55 4.65 4.65 6.85 2.967 2.167 7.25 4.167 12.85 6 0.8-0.3 1.65-0.4 2.55-0.3 4.2 0.4 7.75 0.917 10.65 1.55-0.067-1.033 0.216-1.933 0.85-2.7 0.7-0.833 1.75-1.4 3.15-1.7 1.933-0.367 4.633-1.15 8.1-2.35 3.567-1.2 6.25-2 8.05-2.4 1.8-0.367 4.9-0.683 9.3-0.95 3.934-0.2 7-0.633 9.2-1.3 7.066-2.1 12.167-3.333 15.3-3.7 5.267-0.6 10.483 0 15.65 1.8 1.8 0.633 3.55 1.6 5.25 2.9 1.133 0.934 2.55 2.267 4.25 4 2.1 0.533 3.967 1.35 5.6 2.45 2 1.3 3.35 3.033 4.05 5.2 0.4 0.167 1.033 0.383 1.9 0.65 0.6 0.167 1.783-0.067 3.55-0.7 0.967-0.333 2.15-0.767 3.55-1.3 2.433-0.667 5.066-0.667 7.9 0 1.566 0.367 3.45 1.283 5.65 2.75l1.95 1.3c0.267 0.167 0.4 0.217 0.4 0.15 0.066-0.367 0.35-0.8 0.85-1.3 0.933-0.934 2.25-1.383 3.95-1.35 1.6 0.067 2.917 0.517 3.95 1.35l1.1 0.85c11.67-2.067 20.8-4.633 27.4-7.7z" clip-rule="evenodd" fill="url(#m)" fill-rule="evenodd"/>
</symbol>
<symbol id="s" viewBox="-0.088 -36.014 168.238 35.964">
		<path d="m146.2-8.55c3.333-0.6 5.167-0.934 5.5-1 1.333-0.233 2.333-0.833 3-1.8 0.633-0.933 1.466-1.45 2.5-1.55 2.133-0.2 5.783-1.083 10.95-2.65-2.167-0.434-4.533-0.983-7.1-1.65-1.7-0.433-2.883-0.833-3.55-1.2-0.167-0.1-0.7-0.483-1.6-1.15-1.933-1.5-3.65-2.383-5.15-2.65-0.967-0.2-1.667-0.4-2.1-0.6-0.6-0.267-0.983-0.633-1.15-1.1-0.133-0.434-0.883-0.783-2.25-1.05-1.6-0.3-2.683-0.5-3.25-0.6-1.233-0.233-3.383-0.35-6.45-0.35-1.566 0-3.167-0.434-4.8-1.3-1.533-0.8-2.583-1.267-3.15-1.4-1.9-0.4-5.367-0.6-10.4-0.6h-6.15l-7.1-1.35c-0.467-0.267-1.15-0.55-2.05-0.85-1.767-0.533-3.65-0.8-5.65-0.8-1.1 0-2.667-0.1-4.7-0.3-1.6-0.167-3.8-0.183-6.6-0.05-3.233 0.233-5.5 0.35-6.8 0.35-0.967 0-2.467-0.15-4.5-0.45-2.1-0.3-3.717-0.6-4.85-0.9-1.133-0.333-2.9-0.767-5.3-1.3s-4.167-0.883-5.3-1.05c-1.267-0.167-2.467-0.15-3.6 0.05-1.5 0.3-4.067 1.067-7.7 2.3-3.233 1.133-6.2 2.083-8.9 2.85l-3.05 0.8c-1.934 0.667-3.333 1.233-4.2 1.7-0.933 0.333-1.65 0.583-2.15 0.75-0.867 0.3-1.434 0.717-1.7 1.25-0.367 0.7-1.1 1.233-2.2 1.6-1.333 0.467-3.817 0.934-7.45 1.4-3.233 0.4-4.75 0.8-4.55 1.2l1.3 0.45h-4.85c-4.933 1.566-7.833 2.45-8.7 2.65-0.7 0.2-0.717 0.633-0.05 1.3 0.7 0.7 1.583 1.05 2.65 1.05 0.9 0 1.184 0.267 0.85 0.8-0.566 0.933-0.85 1.45-0.85 1.55 0 0.4-0.05 0.733-0.15 1l-0.2 0.3 1.3 1 0.65 1.7c0.867-0.233 0.333 0.1-1.6 1-1.333 0.6-1.233 1.1 0.3 1.5 1.167 0.367 3.1 0.633 5.8 0.8 2.367 0.333 5.267 0.667 8.7 1 6.9 0.667 13.033 1.017 18.4 1.05 3.533 0 12.183 0.934 25.95 2.8 12.5 1.7 21.1 2.317 25.8 1.85 5.567-0.6 16.417-2.083 32.55-4.45 14.43-2.1 22.98-3.4 25.65-3.9z" clip-rule="evenodd" fill-rule="evenodd"/>
</symbol>
<symbol id="t" viewBox="0 -52.069 51.919 52.115">
			<radialGradient id="n" cx="-1355" cy="-1686" r="25.908" gradientTransform="matrix(.9822 -.1878 -.1885 -.9861 1039 -1943)" gradientUnits="userSpaceOnUse">
			<stop stop-color="#fff" offset="0"/>
			<stop stop-color="#fff" stop-opacity="0" offset="1"/>
		</radialGradient>
		<path d="m51.4-30.9c-1.333-7.067-4.967-12.617-10.9-16.65-5.933-4.034-12.417-5.367-19.45-4-7.033 1.333-12.55 4.967-16.55 10.9s-5.333 12.433-4 19.5c1.367 7.066 5 12.617 10.9 16.65 5.934 4.033 12.417 5.383 19.45 4.05 7.033-1.367 12.55-5.017 16.55-10.95 4.033-5.933 5.367-12.433 4-19.5z" clip-rule="evenodd" fill="url(#n)" fill-rule="evenodd"/>
</symbol>
<symbol id="u" viewBox="-0.034 -54.686 40.017 54.72">
			<radialGradient id="o" cx="-1361.6" cy="-1689.8" r="19.619" gradientTransform="matrix(.9822 -.1879 -.264 -1.3798 911.21 -2614.8)" gradientUnits="userSpaceOnUse">
			<stop stop-color="#fff" offset="0"/>
			<stop stop-color="#fff" stop-opacity="0" offset="1"/>
		</radialGradient>
		<path d="m39.25-31c-1.433-7.467-4.533-13.5-9.3-18.1-4.767-4.566-9.817-6.333-15.15-5.3-5.333 1-9.367 4.5-12.1 10.5-2.767 6.033-3.434 12.783-2 20.25 1.433 7.467 4.533 13.483 9.3 18.05 4.767 4.6 9.817 6.383 15.15 5.35 5.333-1 9.367-4.5 12.1-10.5 2.767-6.033 3.433-12.783 2-20.25z" clip-rule="evenodd" fill="url(#o)" fill-rule="evenodd"/>
</symbol>
<symbol id="v" viewBox="-0.048 -53.905 44.846 53.96">
			<radialGradient id="p" cx="2725.4" cy="1966.8" r="21.856" gradientTransform="matrix(.957 .2902 .3631 -1.1973 -3299.9 1537.2)" gradientUnits="userSpaceOnUse">
			<stop stop-color="#fff" offset="0"/>
			<stop stop-color="#fff" stop-opacity="0" offset="1"/>
		</radialGradient>
		<path d="m42.75-40.95c-2.533-6.367-6.683-10.417-12.45-12.15s-11.466-0.667-17.1 3.2-9.55 9.417-11.75 16.65c-2.167 7.233-1.983 14.017 0.55 20.35s6.683 10.383 12.45 12.15c5.767 1.733 11.466 0.667 17.1-3.2s9.55-9.417 11.75-16.65c2.167-7.233 1.983-14.017-0.55-20.35z" clip-rule="evenodd" fill="url(#p)" fill-rule="evenodd"/>
</symbol>
<use transform="matrix(1 0 0 -1 0 .8501)" y="-90.75" width="191.85" height="90.734" xlink:href="#q"/>
</svg>
